<svg width="470" height="425" viewBox="0 0 470 425" fill="none" xmlns="http://www.w3.org/2000/svg">
<rect width="470" height="425" fill="#E5E5E5"/>
<rect width="1920" height="1080" transform="translate(-389 -374)" fill="white"/>
<g opacity="0.5" clip-path="url(#clip0_0_1)">
<rect x="-389" y="-374" width="1920" height="1480" fill="#F0DEF0"/>
<g filter="url(#filter0_f_0_1)">
<circle cx="1259" cy="483" r="388" fill="#BA7BF1"/>
</g>
<g filter="url(#filter1_f_0_1)">
<ellipse cx="172" cy="-178.5" rx="349" ry="488.5" fill="#DA73C3"/>
</g>
<g filter="url(#filter2_f_0_1)">
<circle cx="-296" cy="757.438" r="349" fill="#6FF3F3"/>
</g>
<g filter="url(#filter3_f_0_1)">
<circle cx="1145" cy="-368" r="256" fill="#FDF8FD"/>
</g>
</g>
<g filter="url(#filter4_d_0_1)">
<rect x="-234" y="-334" width="1725" height="1000" rx="36" fill="white"/>
</g>
<path d="M456.382 303.783C448.696 286.297 433.93 271.682 416.198 264.502C397.732 257.003 376.523 259.747 357.069 257.227C340.166 255.057 327.983 247.494 317.905 234.092C308.241 221.232 299.567 207 283.78 201.065C271.278 196.374 257.086 197.682 244.68 202.565C221.813 211.595 204.527 230.773 189.984 249.887C176.685 267.342 165.841 286.424 141.284 287.062C116.695 287.701 93.2858 273.66 68.5372 277.362C35.8154 282.276 8.57923 309.527 2.87047 341.98C-2.48748 372.39 10.9393 401.875 34.0295 419.202H430.517C459.571 388.345 474.816 345.713 456.382 303.783Z" fill="#E7EDFD"/>
<path d="M97.9741 419.201H99.0585C106.649 410.873 112.581 400.757 116.344 389.557C122.436 371.4 122.181 352.35 115.611 335.884C112.294 327.588 107.478 319.834 102.854 312.335C98.1336 304.74 93.2859 296.89 89.9691 288.466C88.5977 284.988 87.609 281.254 87.0031 277.425C86.7161 277.393 86.4609 277.361 86.1739 277.329C86.7798 281.286 87.8323 285.147 89.2356 288.753C92.5524 297.241 97.4319 305.123 102.184 312.749C106.808 320.216 111.592 327.939 114.877 336.171C121.383 352.446 121.638 371.304 115.579 389.302C111.752 400.63 105.692 410.841 97.9741 419.201Z" fill="white"/>
<path d="M428.572 384.611C436.736 386.366 444.614 387.93 452.236 388.887C452.364 388.632 452.491 388.377 452.619 388.121C444.933 387.132 436.992 385.569 428.731 383.814C416.166 381.133 402.579 378.229 389.089 378.229C380.733 378.229 372.441 379.346 364.436 382.314C361.406 383.431 358.504 384.867 355.697 386.558C348.49 383.494 341.218 380.112 334.042 376.442C339.273 372.517 344.535 368.656 349.861 364.955C389.408 337.321 425.893 321.653 461.134 317.217C461.07 316.962 460.975 316.707 460.911 316.451C425.574 320.919 388.993 336.619 349.383 364.316C343.929 368.114 338.571 372.039 333.245 376.059C325.176 371.879 317.171 367.284 309.453 362.21C295.421 353.02 278.773 339.905 264.198 322.482C320.616 316.132 378.086 308.155 425 276.787C426.786 275.607 428.763 274.203 430.804 272.607C430.581 272.447 430.358 272.288 430.135 272.128C428.189 273.66 426.276 275 424.585 276.117C377.671 307.485 320.105 315.398 263.624 321.748C253.322 309.304 244.137 294.657 237.759 277.745C227.808 251.355 228.319 225.476 239.194 206.713C239.672 205.883 240.151 205.085 240.693 204.288C240.247 204.511 239.8 204.702 239.354 204.926C239.067 205.373 238.811 205.819 238.524 206.298C227.521 225.252 226.979 251.387 237.025 278C243.372 294.848 252.493 309.399 262.699 321.844C259.414 322.195 256.161 322.578 252.908 322.929C241.14 324.237 228.988 325.578 217.156 327.109C212.851 327.652 208.45 328.322 204.08 329.12C194.736 309.367 184.435 290.094 171.167 273.564C170.976 273.756 170.785 273.947 170.593 274.139C183.765 290.54 193.971 309.655 203.283 329.279C184.243 332.917 165.778 339.746 155.891 355.637C146.674 370.475 146.674 390.993 155.923 416.617C156.242 417.511 156.561 418.372 156.911 419.234H157.773C157.422 418.276 157.039 417.319 156.688 416.33C147.535 390.961 147.503 370.667 156.592 356.052C166.352 340.352 184.722 333.619 203.666 330.013C206.983 337.001 210.172 344.054 213.329 351.042L213.68 351.808C224.683 376.123 236.069 399.609 250.994 419.202H251.983C236.93 399.545 225.48 375.932 214.414 351.457L214.063 350.691C210.905 343.735 207.748 336.746 204.495 329.822C208.769 329.024 213.074 328.386 217.316 327.843C229.116 326.312 241.299 324.971 253.035 323.695C256.48 323.312 259.924 322.929 263.369 322.546C278.071 340.256 294.942 353.563 309.134 362.849C316.789 367.859 324.666 372.422 332.671 376.538C319.117 386.813 305.913 397.599 293.029 408.161C288.564 411.799 284.067 415.5 279.506 419.202H280.782C285.056 415.724 289.329 412.245 293.539 408.799C306.519 398.173 319.786 387.292 333.468 376.985C340.612 380.654 347.82 384.005 354.996 387.1C345.173 393.355 337.168 403.023 332.32 414.766C331.714 416.234 331.172 417.734 330.694 419.202H331.523C332.001 417.798 332.48 416.426 333.054 415.053C337.901 403.279 345.97 393.61 355.857 387.451C375.917 395.971 395.659 402.321 412.594 407.331L413.232 407.523C420.375 409.629 427.679 411.799 434.121 415.277C434.312 415.085 434.472 414.862 434.663 414.671C428.094 411.097 420.694 408.927 413.455 406.757L412.817 406.565C396.042 401.587 376.555 395.333 356.686 386.941C359.269 385.409 361.98 384.101 364.787 383.048C385.389 375.389 408.352 380.272 428.572 384.611Z" fill="white"/>
<path d="M36.007 332.917C39.5151 347.341 37.9524 362.913 31.7015 375.645C27.5873 383.973 21.6872 391.536 14.3839 398.014C14.5433 398.237 14.6709 398.46 14.8303 398.684C22.2294 392.11 28.2571 384.452 32.435 375.996C38.7816 363.104 40.3762 347.309 36.8043 332.726C34.0296 321.302 28.4166 311.665 20.6667 304.677C20.5072 304.868 20.3159 305.092 20.1564 305.283C27.7468 312.176 33.2642 321.685 36.007 332.917Z" fill="white"/>
<path d="M413.143 173.341C420.096 180.457 423.189 192.391 419.362 203.432C415.663 214.122 407.53 222.961 397.771 228.641C389.925 233.204 379.656 235.757 371.938 230.938C366.165 227.364 363.167 220.344 363.008 213.547C362.849 206.75 365.113 200.113 367.951 193.954C371.938 185.243 377.296 176.787 385.269 171.49C396.24 164.182 406.478 166.512 413.143 173.341Z" fill="#E7EDFD"/>
<path d="M124.381 25.7195H66.8788V0H124.381V25.7195ZM68.0589 24.5069H123.169V1.21258H68.0589V24.5069Z" fill="#7A73FF"/>
<path d="M86.9711 50.2903H29.437V24.5708H86.9392V50.2903H86.9711ZM30.6489 49.1096H85.7591V25.7834H30.6489V49.1096Z" fill="#7A73FF"/>
<path d="M470 423H0V424.595H470V423Z" fill="#102048"/>
<path opacity="0.2" d="M238.741 423.033C357.183 423.033 453.199 420.911 453.199 418.293C453.199 415.676 357.183 413.554 238.741 413.554C120.299 413.554 24.2823 415.676 24.2823 418.293C24.2823 420.911 120.299 423.033 238.741 423.033Z" fill="#0B2252"/>
<path d="M338.194 68.3897C340.43 66.1535 343.533 64.7518 346.937 64.7518H359.219C361.054 56.3413 368.563 50 377.508 50C386.485 50 393.994 56.3079 395.796 64.7518H399.1C402.504 64.7518 405.608 66.1202 407.844 68.3897C410.08 70.6258 411.482 73.7297 411.482 77.1339C411.482 80.9053 409.78 84.2762 407.11 86.5457C404.941 88.3814 402.171 89.4827 399.1 89.4827H346.904C343.5 89.4827 340.396 88.1144 338.16 85.8448C335.924 83.6087 334.522 80.5048 334.522 77.1006C334.556 73.7297 335.958 70.6258 338.194 68.3897Z" fill="#E9F3FC"/>
<path d="M187.846 87.0135C185.744 84.9108 182.84 83.6092 179.636 83.6092H168.089C166.354 75.6993 159.312 69.7585 150.902 69.7585C142.458 69.7585 135.416 75.6993 133.714 83.6092H130.611C127.407 83.6092 124.503 84.9108 122.401 87.0135C120.298 89.1161 118.997 92.0197 118.997 95.2237C118.997 98.7615 120.598 101.966 123.101 104.068C125.137 105.804 127.74 106.838 130.611 106.838H179.67C182.873 106.838 185.777 105.537 187.879 103.434C189.982 101.331 191.284 98.4278 191.284 95.2237C191.25 92.0197 189.949 89.1161 187.846 87.0135Z" fill="#E9F3FC"/>
<path d="M323.342 343.701C319.037 345.136 322.274 351.21 322.274 355.482C322.274 359.754 320.138 371.535 324.41 373.671C328.682 375.808 335.123 380.113 335.123 384.385C335.123 388.657 336.191 394.03 340.463 396.166C344.735 398.302 349.04 398.302 349.04 401.506C349.04 404.71 346.904 405.778 347.972 409.016C349.04 412.22 351.176 413.288 350.108 414.356H377.941C377.941 414.356 383.281 405.778 382.213 400.438C381.145 395.098 375.772 395.098 374.704 390.793C373.636 386.521 368.263 385.453 368.263 381.148C368.263 376.875 366.127 370.434 362.923 368.298C359.719 366.162 353.278 368.298 351.142 364.026C349.007 359.754 351.142 355.449 347.939 353.313C344.735 351.177 338.294 354.381 335.09 351.177C331.919 347.973 326.546 342.633 323.342 343.701Z" fill="#3FB790"/>
<path d="M327.648 365.495C327.714 365.195 328.015 365.061 328.315 365.128C328.382 365.128 333.254 366.53 336.725 366.496C334.322 357.352 329.116 355.449 329.083 355.449C328.816 355.349 328.649 355.049 328.749 354.782C328.849 354.515 329.149 354.348 329.416 354.448C329.683 354.548 336.158 356.818 338.327 368.766C338.828 371.536 340.63 374.173 343.066 376.676C345.135 374.607 345.769 368.098 345.836 365.629C345.836 365.328 346.07 365.095 346.37 365.095C346.67 365.095 346.904 365.362 346.904 365.629C346.904 365.996 346.604 374.573 343.8 377.41C346.504 380.047 349.874 382.583 353.178 385.086C356.716 387.756 360.153 390.36 362.79 392.996C363.224 391.928 363.29 388.524 362.957 384.919C362.923 384.619 363.157 384.352 363.457 384.352C363.758 384.352 364.025 384.552 364.025 384.853C364.225 387.122 364.559 392.128 363.524 393.797C365.293 395.7 366.594 397.669 367.229 399.738C367.329 400.005 367.162 400.305 366.861 400.405C366.795 400.405 366.761 400.439 366.695 400.439C366.461 400.439 366.261 400.305 366.194 400.072C364.892 395.7 360.053 391.695 354.58 387.523C351.61 390.326 343.533 390.793 343.166 390.793H343.133C342.866 390.793 342.599 390.56 342.599 390.293C342.599 389.992 342.799 389.759 343.099 389.725C343.166 389.725 350.909 389.258 353.712 386.855C353.312 386.555 352.911 386.254 352.511 385.954C345.569 380.748 338.427 375.341 337.259 368.933C337.159 368.432 337.059 367.998 336.959 367.531C336.792 367.531 336.658 367.564 336.492 367.564C332.887 367.564 328.215 366.229 327.981 366.163C327.714 366.096 327.547 365.795 327.648 365.495Z" fill="#34916F"/>
<path d="M387.486 345.836C393.059 348.64 387.486 360.822 388.554 365.127C389.622 369.399 392.826 372.636 391.758 376.908C390.69 381.181 388.554 384.418 388.554 388.69C388.554 392.962 394.995 397.267 393.894 404.743C392.826 412.253 389.622 414.389 389.622 414.389H366.06C366.06 414.389 363.924 412.253 363.924 407.947C363.924 403.675 369.264 399.37 368.196 397.234C367.128 395.098 362.856 390.793 363.924 383.316C364.992 375.807 368.196 375.807 369.264 371.535C370.332 367.263 368.196 365.094 369.264 361.89C370.332 358.686 375.705 355.448 376.773 353.312C377.841 351.21 381.045 342.632 387.486 345.836Z" fill="#90DAD8"/>
<path d="M369.465 383.45C369.698 383.25 370.032 383.284 370.232 383.517C371.3 384.785 374.037 387.889 375.772 389.291C375.739 388.557 375.705 387.823 375.705 387.088C375.705 383.751 375.705 380.38 375.872 377.109C375.872 377.076 375.872 377.076 375.872 377.042C376.006 374.139 376.273 371.335 376.773 368.765C377.841 363.359 383.081 356.016 383.281 355.716C383.448 355.482 383.782 355.415 384.015 355.582C384.249 355.749 384.316 356.083 384.149 356.317C384.082 356.383 378.842 363.793 377.808 368.966C377.407 370.935 377.174 373.104 377.007 375.34C378.943 373.338 382.213 371.669 382.38 371.602C382.647 371.469 382.981 371.569 383.114 371.836C383.248 372.103 383.148 372.437 382.881 372.57C382.847 372.604 378.108 374.973 376.907 377.243C376.74 380.447 376.74 383.784 376.74 387.088C376.74 389.925 377.174 392.996 377.541 395.699C377.908 398.269 378.208 400.438 378.075 401.974C379.944 400.906 383.048 399.637 383.481 399.471C383.748 399.37 384.082 399.504 384.182 399.771C384.282 400.038 384.149 400.372 383.882 400.472C382.447 401.039 378.576 402.708 377.708 403.509C376.506 405.945 374.571 410.985 374.404 414.456C374.404 414.756 374.17 414.957 373.87 414.957C373.87 414.957 373.87 414.957 373.836 414.957C373.536 414.957 373.303 414.69 373.336 414.389C373.503 410.718 375.539 405.411 376.773 402.942C377.307 401.907 376.873 398.97 376.44 395.866C376.206 394.231 375.972 392.495 375.839 390.726C373.67 389.425 369.531 384.452 369.331 384.251C369.231 383.984 369.264 383.651 369.465 383.45Z" fill="white"/>
<path d="M392.392 413.955C392.392 416.024 373.803 417.893 343.767 419.262C340.196 419.429 336.458 419.562 332.553 419.729C315.066 420.397 294.474 420.864 272.014 421.164C271.613 421.164 271.18 421.164 270.779 421.164C268.81 421.198 266.808 421.231 264.805 421.231C253.225 421.331 241.177 421.398 228.795 421.398C225.024 421.398 221.286 421.398 217.615 421.364C212.275 421.364 207.002 421.331 201.829 421.264C174.063 421.064 148.632 420.53 127.473 419.762C126.439 419.729 125.371 419.662 124.336 419.662C116.093 419.362 108.55 418.995 101.809 418.628C78.9147 417.359 65.1982 415.724 65.1982 413.922C65.1982 412.019 80.8837 410.284 106.715 408.949C111.053 408.715 115.692 408.515 120.565 408.315C121.733 408.248 122.901 408.215 124.102 408.181C124.603 408.181 125.104 408.148 125.604 408.114C125.838 408.114 126.071 408.081 126.305 408.081C146.229 407.347 169.991 406.813 196.022 406.579C201.529 406.512 207.136 406.479 212.809 406.446C218.049 406.412 223.389 406.412 228.795 406.412C241.243 406.412 253.391 406.479 265.039 406.579C267.108 406.613 269.177 406.646 271.213 406.646C272.481 406.679 273.783 406.679 275.051 406.713C295.576 406.98 314.398 407.447 330.685 408.048C333.588 408.148 336.425 408.248 339.161 408.381C371.834 409.817 392.392 411.786 392.392 413.955Z" fill="url(#paint0_linear_0_1)"/>
<path d="M130.043 194.948L125.971 185.269L76.3783 196.917L86.5572 206.696L130.043 194.948Z" fill="#14336D"/>
<path d="M130.043 194.948L86.5573 206.696C86.5573 206.696 87.2581 217.242 87.8254 220.68L136.217 207.096L130.043 194.948Z" fill="#FFAA9D"/>
<path d="M185.777 383.716C185.777 383.716 137.518 332.519 119.997 303.516C102.476 274.48 92.7979 253.253 86.457 221.046L137.685 206.562C137.685 206.562 164.05 264.134 186.511 289.565C208.971 314.997 243.479 372.369 243.479 372.369L185.777 383.716Z" fill="url(#paint1_linear_0_1)"/>
<path d="M301.216 274.648L313.564 265.136L277.654 217.376L271.346 232.929L301.216 274.648Z" fill="#14336D"/>
<path d="M301.216 274.647L271.346 232.928L254.259 238.235L288.167 284.159L301.216 274.647Z" fill="#FFAA9D"/>
<path d="M270.579 350.142C270.579 350.142 262.436 327.447 240.442 320.505C240.442 320.505 285.964 288.532 289.902 286.329L253.358 236.734C253.358 236.734 202.397 251.586 183.474 278.319C164.551 305.052 178.835 326.112 192.418 342.533C206.034 358.987 225.424 372.237 225.424 372.237L270.579 350.142Z" fill="#14336D"/>
<path d="M127.406 419.829C126.372 419.795 125.304 419.728 124.269 419.728C116.026 419.428 108.484 419.061 101.742 418.694C102.91 415.623 104.612 412.219 106.615 409.048C109.785 404.009 113.79 399.436 117.895 397.234C118.763 396.766 119.664 396.399 120.531 396.166L124.036 408.247L127.406 419.829Z" fill="#FFAA9D"/>
<path d="M217.582 421.397C212.242 421.397 206.969 421.364 201.796 421.297C174.029 421.097 148.599 420.563 127.44 419.795C126.405 419.762 125.337 419.695 124.303 419.695C123.068 416.591 121.7 412.386 120.531 408.381C119.13 403.575 118.028 399.102 117.928 397.2C117.928 397.1 117.928 396.966 117.928 396.866C117.962 393.028 143.626 375.473 181.605 382.815C182.973 383.082 184.375 383.383 185.777 383.717C198.993 386.854 207.636 395.665 212.776 406.545C214.979 411.218 216.58 416.257 217.582 421.397Z" fill="url(#paint2_linear_0_1)"/>
<path d="M343.767 419.261C340.196 419.428 336.458 419.562 332.553 419.729C315.066 420.396 294.474 420.863 272.014 421.164C271.613 421.164 271.179 421.164 270.779 421.164C268.81 421.197 266.807 421.231 264.805 421.231C266.941 416.324 269.11 411.418 271.213 406.746C273.682 401.339 276.052 396.266 278.255 391.827C282.56 383.183 286.131 376.975 288.066 375.707C295.976 370.5 305.287 371.535 321.407 384.084C328.549 389.658 334.656 399.236 339.128 408.448C340.93 412.253 342.499 415.957 343.767 419.261Z" fill="url(#paint3_linear_0_1)"/>
<path d="M278.221 391.86C278.155 392.561 278.055 393.195 277.954 393.863C277.42 397.234 276.386 401.739 275.018 406.846C273.816 411.285 272.348 416.157 270.746 421.197C268.777 421.23 266.774 421.264 264.772 421.264C253.191 421.364 241.143 421.431 228.762 421.431C224.991 421.431 221.253 421.431 217.582 421.397C212.242 421.397 206.969 421.364 201.796 421.297C200.261 415.757 198.225 410.917 195.989 406.645C190.282 395.565 183.474 388.289 181.605 382.782C181.472 382.348 181.338 381.948 181.271 381.547C181.171 381.047 181.472 380.446 182.106 379.712C185.376 375.874 197.958 369.032 212.609 362.323C218.917 359.42 225.591 356.516 232.099 353.913C247.418 347.738 261.668 343.032 267.175 343.099C268.009 343.099 268.61 343.233 269.01 343.466C276.219 347.571 280.457 373.871 278.221 391.86Z" fill="url(#paint4_linear_0_1)"/>
<defs>
<filter id="filter0_f_0_1" x="111" y="-665" width="2296" height="2296" filterUnits="userSpaceOnUse" color-interpolation-filters="sRGB">
<feFlood flood-opacity="0" result="BackgroundImageFix"/>
<feBlend mode="normal" in="SourceGraphic" in2="BackgroundImageFix" result="shape"/>
<feGaussianBlur stdDeviation="380" result="effect1_foregroundBlur_0_1"/>
</filter>
<filter id="filter1_f_0_1" x="-937" y="-1427" width="2218" height="2497" filterUnits="userSpaceOnUse" color-interpolation-filters="sRGB">
<feFlood flood-opacity="0" result="BackgroundImageFix"/>
<feBlend mode="normal" in="SourceGraphic" in2="BackgroundImageFix" result="shape"/>
<feGaussianBlur stdDeviation="380" result="effect1_foregroundBlur_0_1"/>
</filter>
<filter id="filter2_f_0_1" x="-1405" y="-351.562" width="2218" height="2218" filterUnits="userSpaceOnUse" color-interpolation-filters="sRGB">
<feFlood flood-opacity="0" result="BackgroundImageFix"/>
<feBlend mode="normal" in="SourceGraphic" in2="BackgroundImageFix" result="shape"/>
<feGaussianBlur stdDeviation="380" result="effect1_foregroundBlur_0_1"/>
</filter>
<filter id="filter3_f_0_1" x="129" y="-1384" width="2032" height="2032" filterUnits="userSpaceOnUse" color-interpolation-filters="sRGB">
<feFlood flood-opacity="0" result="BackgroundImageFix"/>
<feBlend mode="normal" in="SourceGraphic" in2="BackgroundImageFix" result="shape"/>
<feGaussianBlur stdDeviation="380" result="effect1_foregroundBlur_0_1"/>
</filter>
<filter id="filter4_d_0_1" x="-270" y="-367" width="1797" height="1072" filterUnits="userSpaceOnUse" color-interpolation-filters="sRGB">
<feFlood flood-opacity="0" result="BackgroundImageFix"/>
<feColorMatrix in="SourceAlpha" type="matrix" values="0 0 0 0 0 0 0 0 0 0 0 0 0 0 0 0 0 0 127 0" result="hardAlpha"/>
<feOffset dy="3"/>
<feGaussianBlur stdDeviation="18"/>
<feComposite in2="hardAlpha" operator="out"/>
<feColorMatrix type="matrix" values="0 0 0 0 0.262745 0 0 0 0 0 0 0 0 0 1 0 0 0 0.05 0"/>
<feBlend mode="normal" in2="BackgroundImageFix" result="effect1_dropShadow_0_1"/>
<feBlend mode="normal" in="SourceGraphic" in2="effect1_dropShadow_0_1" result="shape"/>
</filter>
<linearGradient id="paint0_linear_0_1" x1="228.494" y1="406.509" x2="228.698" y2="412.219" gradientUnits="userSpaceOnUse">
<stop stop-color="#14336D"/>
<stop offset="1" stop-color="#0E2253"/>
</linearGradient>
<linearGradient id="paint1_linear_0_1" x1="145.975" y1="294.797" x2="205.455" y2="296.074" gradientUnits="userSpaceOnUse">
<stop stop-color="#14336D"/>
<stop offset="1" stop-color="#0E2253"/>
</linearGradient>
<linearGradient id="paint2_linear_0_1" x1="170.254" y1="398.029" x2="162.703" y2="431.219" gradientUnits="userSpaceOnUse">
<stop stop-color="#3162DF"/>
<stop offset="0.9649" stop-color="#173DB8"/>
</linearGradient>
<linearGradient id="paint3_linear_0_1" x1="311.138" y1="402.543" x2="279.604" y2="436.517" gradientUnits="userSpaceOnUse">
<stop stop-color="#3162DF"/>
<stop offset="0.9649" stop-color="#173DB8"/>
</linearGradient>
<linearGradient id="paint4_linear_0_1" x1="233.219" y1="404.368" x2="240.101" y2="460.784" gradientUnits="userSpaceOnUse">
<stop stop-color="#3162DF"/>
<stop offset="0.9649" stop-color="#173DB8"/>
</linearGradient>
<clipPath id="clip0_0_1">
<rect width="1920" height="1080" fill="white" transform="translate(-389 -374)"/>
</clipPath>
</defs>
</svg>
