<svg width="470" height="420" viewBox="0 0 470 420" fill="none" xmlns="http://www.w3.org/2000/svg">
<g clip-path="url(#clip0_0_222)">
<path d="M456.382 303.783C448.696 286.297 433.93 271.682 416.197 264.502C397.732 257.003 376.523 259.747 357.069 257.227C340.166 255.057 327.983 247.494 317.905 234.092C308.241 221.232 299.566 207 283.78 201.065C271.278 196.374 257.086 197.682 244.679 202.565C221.813 211.595 204.527 230.773 189.984 249.887C176.685 267.342 165.841 286.424 141.284 287.062C116.695 287.701 93.2857 273.66 68.5371 277.362C35.8154 282.276 8.57917 309.527 2.87041 341.98C-2.48754 372.39 10.9392 401.875 34.0294 419.202H430.517C459.571 388.345 474.816 345.713 456.382 303.783Z" fill="#E7EDFD"/>
<path d="M97.9741 419.201H99.0584C106.649 410.873 112.581 400.757 116.344 389.557C122.436 371.4 122.18 352.35 115.611 335.884C112.294 327.588 107.478 319.834 102.854 312.335C98.1335 304.74 93.2859 296.89 89.969 288.466C88.5977 284.988 87.609 281.254 87.003 277.425C86.716 277.393 86.4609 277.361 86.1738 277.329C86.7798 281.286 87.8322 285.147 89.2355 288.753C92.5523 297.241 97.4319 305.123 102.184 312.749C106.808 320.216 111.592 327.939 114.877 336.171C121.383 352.446 121.638 371.304 115.579 389.302C111.752 400.63 105.692 410.841 97.9741 419.201Z" fill="white"/>
<path d="M428.572 384.611C436.736 386.366 444.614 387.93 452.236 388.887C452.364 388.632 452.491 388.377 452.619 388.121C444.933 387.132 436.992 385.569 428.731 383.814C416.166 381.133 402.58 378.229 389.089 378.229C380.733 378.229 372.441 379.346 364.436 382.314C361.406 383.431 358.504 384.867 355.698 386.558C348.49 383.494 341.218 380.112 334.043 376.442C339.273 372.517 344.535 368.656 349.861 364.955C389.408 337.321 425.893 321.653 461.134 317.217C461.07 316.962 460.975 316.707 460.911 316.451C425.574 320.919 388.993 336.619 349.383 364.316C343.929 368.114 338.571 372.039 333.245 376.059C325.176 371.879 317.171 367.284 309.453 362.21C295.421 353.02 278.773 339.905 264.198 322.482C320.616 316.132 378.086 308.155 425 276.787C426.786 275.607 428.763 274.203 430.804 272.607C430.581 272.447 430.358 272.288 430.135 272.128C428.189 273.66 426.276 275 424.585 276.117C377.671 307.485 320.105 315.398 263.624 321.748C253.323 309.304 244.137 294.657 237.759 277.745C227.809 251.355 228.319 225.476 239.194 206.713C239.673 205.883 240.151 205.085 240.693 204.288C240.247 204.511 239.8 204.702 239.354 204.926C239.067 205.373 238.811 205.819 238.524 206.298C227.521 225.252 226.979 251.387 237.025 278C243.372 294.848 252.493 309.399 262.699 321.844C259.414 322.195 256.161 322.578 252.908 322.929C241.14 324.237 228.989 325.578 217.156 327.109C212.851 327.652 208.45 328.322 204.081 329.12C194.736 309.367 184.435 290.094 171.167 273.564C170.976 273.756 170.785 273.947 170.593 274.139C183.765 290.54 193.971 309.655 203.283 329.279C184.243 332.917 165.778 339.746 155.891 355.637C146.674 370.475 146.674 390.993 155.923 416.617C156.242 417.511 156.561 418.372 156.911 419.234H157.773C157.422 418.276 157.039 417.319 156.688 416.33C147.535 390.961 147.503 370.667 156.593 356.052C166.352 340.352 184.722 333.619 203.666 330.013C206.983 337.001 210.172 344.054 213.329 351.042L213.68 351.808C224.683 376.123 236.069 399.609 250.994 419.202H251.983C236.93 399.545 225.48 375.932 214.414 351.457L214.063 350.691C210.905 343.735 207.748 336.746 204.495 329.822C208.769 329.024 213.074 328.386 217.316 327.843C229.116 326.312 241.299 324.971 253.036 323.695C256.48 323.312 259.924 322.929 263.369 322.546C278.071 340.256 294.942 353.563 309.134 362.849C316.789 367.859 324.666 372.422 332.671 376.538C319.117 386.813 305.913 397.599 293.029 408.161C288.564 411.799 284.067 415.5 279.506 419.202H280.782C285.056 415.724 289.329 412.245 293.539 408.799C306.519 398.173 319.787 387.292 333.468 376.985C340.612 380.654 347.82 384.005 354.996 387.1C345.173 393.355 337.168 403.023 332.32 414.766C331.714 416.234 331.172 417.734 330.694 419.202H331.523C332.001 417.798 332.48 416.426 333.054 415.053C337.902 403.279 345.97 393.61 355.857 387.451C375.917 395.971 395.659 402.321 412.594 407.331L413.232 407.523C420.376 409.629 427.679 411.799 434.121 415.277C434.313 415.085 434.472 414.862 434.663 414.671C428.094 411.097 420.694 408.927 413.455 406.757L412.817 406.565C396.042 401.587 376.555 395.333 356.686 386.941C359.27 385.409 361.98 384.101 364.787 383.048C385.389 375.389 408.352 380.272 428.572 384.611Z" fill="white"/>
<path d="M36.0069 332.917C39.5151 347.341 37.9524 362.913 31.7014 375.645C27.5873 383.973 21.6872 391.536 14.3838 398.014C14.5433 398.237 14.6708 398.46 14.8303 398.684C22.2293 392.11 28.257 384.452 32.4349 375.996C38.7816 363.104 40.3762 347.309 36.8042 332.726C34.0296 321.302 28.4165 311.665 20.6666 304.677C20.5072 304.868 20.3158 305.092 20.1563 305.283C27.7468 312.176 33.2642 321.685 36.0069 332.917Z" fill="white"/>
<path d="M216.455 150.232C223.407 157.348 226.501 169.282 222.674 180.323C218.974 191.013 210.841 199.852 201.082 205.532C193.237 210.095 182.967 212.648 175.249 207.83C169.477 204.256 166.479 197.236 166.319 190.439C166.16 183.642 168.424 177.005 171.263 170.846C175.249 162.135 180.607 153.678 188.58 148.381C199.551 141.074 209.789 143.403 216.455 150.232Z" fill="#E7EDFD"/>
<path d="M124.381 25.7195H66.8789V0H124.381V25.7195ZM68.0589 24.5069H123.169V1.21258H68.0589V24.5069Z" fill="#7A73FF"/>
<path d="M86.9711 50.2903H29.437V24.5708H86.9392V50.2903H86.9711ZM30.6489 49.1096H85.7592V25.7834H30.6489V49.1096Z" fill="#7A73FF"/>
<path d="M451.63 77.7007C447.898 65.3196 441.36 53.9277 431.984 43.525C422.576 33.1223 409.787 24.5385 393.554 17.7417C377.32 10.9448 356.686 7.56238 331.682 7.56238C311.717 7.56238 291.402 10.2428 270.672 15.6356C249.942 21.0284 231.954 28.7187 216.678 38.7066L236.547 93.2728L225.895 101.888L241.331 106.42C256.575 98.4422 270.448 92.6346 282.982 89.0287C295.484 85.4229 308.783 83.6359 322.88 83.6359C336.944 83.6359 347.596 87.0184 354.836 93.8152C362.076 100.612 365.68 108.813 365.68 118.386C365.68 129.969 361.948 140.244 354.549 149.243C347.086 158.242 338.89 167.336 329.896 176.526C323.645 182.908 317.586 189.513 311.717 196.278C305.849 203.075 300.651 210.351 296.186 218.169C291.689 225.955 288.085 234.347 285.342 243.346C282.6 252.344 281.228 262.428 281.228 273.596C281.228 277.202 281.292 281.51 281.515 286.488C281.547 287.413 281.611 288.307 281.643 289.2H267.036L282.95 299.986H360.385C359.971 297.593 359.779 294.785 359.779 291.594C359.779 288.403 359.779 286.009 359.779 284.382C359.779 277.585 361.151 270.884 363.894 264.311C366.636 257.705 370.049 251.419 374.163 245.42C378.277 239.421 382.838 233.741 387.941 228.348C393.011 222.955 397.923 217.85 402.611 213.063C408.862 206.681 415.304 199.884 421.97 192.704C428.603 185.493 434.504 177.93 439.575 169.921C444.645 161.911 448.855 153.232 452.172 143.818C455.489 134.437 457.179 124.162 457.179 112.961C457.211 101.857 455.329 90.0818 451.63 77.7007Z" fill="#554DEE"/>
<path d="M306.455 79.8708C292.518 79.8708 279.379 81.5939 267.036 85.0721C254.662 88.5503 240.948 94.1665 225.863 101.889L201.497 36.3774C216.582 26.7087 234.346 19.2736 254.853 14.0404C275.328 8.83904 295.421 6.22241 315.162 6.22241C339.879 6.22241 360.258 9.50915 376.3 16.0826C392.342 22.6561 405.003 30.9527 414.284 41.0363C423.565 51.0879 430.039 62.0969 433.706 74.0951C437.374 86.0933 439.224 97.4851 439.224 108.303C439.224 119.152 437.565 129.108 434.28 138.17C430.996 147.265 426.85 155.689 421.811 163.411C416.803 171.165 410.967 178.473 404.397 185.461C397.827 192.418 391.449 198.991 385.294 205.182C380.637 209.84 375.822 214.755 370.814 219.988C365.775 225.189 361.247 230.71 357.196 236.517C353.146 242.325 349.733 248.42 347.054 254.802C344.344 261.184 343.004 267.661 343.004 274.235C343.004 275.798 343.004 278.096 343.004 281.191C343.004 284.287 343.196 286.999 343.578 289.296H267.036C266.239 285.435 265.76 281.096 265.569 276.245C265.346 271.427 265.282 267.247 265.282 263.768C265.282 252.951 266.622 243.186 269.332 234.475C272.043 225.764 275.583 217.658 280.048 210.128C284.481 202.565 289.616 195.545 295.421 188.939C301.225 182.366 307.221 175.984 313.376 169.825C322.274 160.922 330.375 152.147 337.742 143.436C345.077 134.724 348.745 124.768 348.745 113.568C348.745 104.282 345.173 96.3683 338.029 89.7629C330.917 83.1575 320.36 79.8708 306.455 79.8708Z" fill="#7A73FF"/>
<path d="M365.712 375.294C365.712 389.27 361.183 400.056 352.157 407.651C343.132 415.277 332.894 419.074 321.509 419.074C310.091 419.074 299.854 415.277 290.828 407.651C281.802 400.056 277.274 389.27 277.274 375.294C277.274 361.349 281.802 350.564 290.828 342.937C304.733 331.194 325.336 328.578 341.633 336.81C356.048 344.118 365.712 358.988 365.712 375.294Z" fill="#554DEE"/>
<path d="M350.563 375.294C350.563 389.27 346.034 400.056 337.008 407.651C327.983 415.277 317.745 419.074 306.36 419.074C294.942 419.074 284.705 415.277 275.679 407.651C266.653 400.056 262.125 389.27 262.125 375.294C262.125 361.349 266.653 350.564 275.679 342.937C284.705 335.342 294.942 331.513 306.36 331.513C317.777 331.513 327.983 335.311 337.008 342.937C346.034 350.532 350.563 361.317 350.563 375.294Z" fill="#7A73FF"/>
<path d="M121.274 177.234C122.121 172.713 119.144 168.361 114.626 167.513C110.107 166.666 105.758 169.644 104.911 174.165C104.064 178.687 107.041 183.038 111.559 183.886C116.078 184.733 120.427 181.755 121.274 177.234Z" fill="#D3DFFF"/>
<path d="M125.274 192.896C125.751 190.35 124.061 187.896 121.498 187.416C118.936 186.935 116.472 188.61 115.995 191.156C115.518 193.703 117.209 196.156 119.771 196.637C122.333 197.117 124.797 195.443 125.274 192.896Z" fill="#D3DFFF"/>
<path d="M115.735 156.913C128.564 144.078 128.564 123.267 115.735 110.432C102.907 97.5967 82.1081 97.5967 69.2797 110.432C56.4514 123.267 56.4514 144.078 69.2797 156.913C82.1081 169.748 102.907 169.748 115.735 156.913Z" fill="#D3DFFF"/>
<path d="M79.9224 137.819C82.2122 137.819 84.0684 135.962 84.0684 133.671C84.0684 131.38 82.2122 129.522 79.9224 129.522C77.6326 129.522 75.7764 131.38 75.7764 133.671C75.7764 135.962 77.6326 137.819 79.9224 137.819Z" fill="white"/>
<path d="M92.5198 137.819C94.8096 137.819 96.6658 135.962 96.6658 133.671C96.6658 131.38 94.8096 129.522 92.5198 129.522C90.23 129.522 88.3738 131.38 88.3738 133.671C88.3738 135.962 90.23 137.819 92.5198 137.819Z" fill="white"/>
<path d="M105.117 137.819C107.407 137.819 109.263 135.962 109.263 133.671C109.263 131.38 107.407 129.522 105.117 129.522C102.828 129.522 100.971 131.38 100.971 133.671C100.971 135.962 102.828 137.819 105.117 137.819Z" fill="white"/>
<path d="M68.9837 402.609L72.0454 414.447C72.8427 417.542 75.8406 419.617 79.1255 419.393C89.1717 418.723 110.093 416.234 122.085 407.395L118.672 390.323C102.184 389.398 86.7478 390.323 73.3849 394.823C70.068 395.939 68.1226 399.29 68.9837 402.609Z" fill="#102048"/>
<path d="M88.2149 412.022C88.0555 412.022 87.896 411.894 87.8322 411.734L83.7181 396.96C83.6543 396.737 83.7819 396.513 84.0051 396.482C84.2284 396.418 84.4516 396.545 84.4835 396.769L88.5976 411.543C88.6614 411.766 88.5338 411.99 88.3106 412.022C88.2787 412.022 88.2468 412.022 88.2149 412.022Z" fill="white"/>
<path d="M97.1131 410.012C96.9537 410.012 96.7942 409.885 96.7304 409.725L92.6163 394.951C92.5525 394.728 92.6801 394.504 92.9033 394.472C93.1266 394.408 93.3498 394.536 93.3817 394.759L97.4958 409.534C97.5596 409.757 97.432 409.981 97.2088 410.012C97.2088 410.012 97.145 410.012 97.1131 410.012Z" fill="white"/>
<path d="M107.478 338.629L69.1113 350.021L97.5914 389.047L138.478 392.301L194.832 368.433L173.432 336.172L107.478 338.629Z" fill="#0E2D66"/>
<path d="M154.711 344.053C238.907 319.131 252.429 393.577 121.064 407.107C116.44 401.874 111.018 392.811 108.849 385.249L178.216 353.179L154.711 344.053Z" fill="#14336D"/>
<path d="M158.315 397.407C154.392 396.13 150.597 393.641 150.597 393.641L137.074 397.885L140.168 412.628L154.232 415.499C158.506 407.65 158.761 401.204 158.315 397.407Z" fill="#F9B384"/>
<path d="M107.478 338.629C29.1179 323.727 8.83428 399.067 140.168 412.628C144.792 407.395 148.46 401.236 150.597 393.642C130.409 380.144 107.861 367.284 83.1439 355.063L107.478 338.629Z" fill="#14336D"/>
<path d="M197.383 393.003C187.337 386.813 167.882 397.534 163.003 398.077C161.567 398.236 159.941 397.917 158.314 397.407C158.761 401.204 158.506 407.65 154.232 415.468L156.624 415.946C156.624 415.946 173.144 422.009 190.653 418.467C206.791 415.244 205.26 397.885 197.383 393.003Z" fill="#102048"/>
<path d="M183.701 413.33C183.669 413.33 183.605 413.33 183.573 413.298C183.35 413.234 183.254 413.011 183.318 412.787C184.498 409.022 185.04 401.587 181.564 396.577C181.437 396.385 181.468 396.162 181.66 396.034C181.851 395.907 182.074 395.939 182.202 396.13C185.806 401.363 185.296 409.118 184.052 413.042C184.02 413.202 183.86 413.33 183.701 413.33Z" fill="white"/>
<path d="M175.823 414.798C175.792 414.798 175.728 414.798 175.696 414.766C175.473 414.702 175.377 414.479 175.441 414.255C176.621 410.49 177.163 403.055 173.687 398.045C173.559 397.854 173.591 397.63 173.782 397.503C173.974 397.375 174.197 397.407 174.324 397.598C177.928 402.832 177.418 410.586 176.174 414.511C176.142 414.702 175.983 414.798 175.823 414.798Z" fill="white"/>
<path d="M93.6044 241.463C93.6044 241.463 113.346 224.678 112.612 221.487C112.102 219.222 106.489 222.54 106.489 222.54C106.489 222.54 114.335 213.223 113.92 212.106C113.218 210.095 107.797 213.861 107.797 213.861C107.797 213.861 111.464 208.596 109.71 207.734C107.956 206.872 104.129 210.127 104.129 210.127C104.129 210.127 106.361 207.192 105.309 206.426C104.257 205.66 99.7278 208.819 99.7278 208.819C99.7278 208.819 101.354 205.117 97.9099 206.521C94.4655 207.925 70.291 230.135 70.291 230.135L93.6044 241.463Z" fill="#F9B384"/>
<path d="M101.673 221.551C101.577 221.551 101.482 221.52 101.418 221.456C98.0374 218.361 96.5384 217.595 92.807 216.446C92.5838 216.382 92.4881 216.159 92.5519 215.935C92.6157 215.712 92.8389 215.616 93.0621 215.68C96.9211 216.861 98.4839 217.659 101.992 220.849C102.152 221.009 102.152 221.264 102.024 221.424C101.896 221.52 101.769 221.551 101.673 221.551Z" fill="#E28B6D"/>
<path d="M95.7412 230.678C95.7093 230.678 95.7093 230.678 95.6774 230.678C95.4541 230.646 95.2947 230.454 95.3266 230.231C95.7093 227.455 96.6023 225.732 98.0055 224.934C99.2175 224.264 100.78 224.328 102.662 225.125C102.853 225.221 102.949 225.445 102.885 225.636C102.789 225.827 102.566 225.923 102.375 225.859C100.716 225.157 99.4088 225.062 98.4201 225.604C97.272 226.242 96.5066 227.838 96.1558 230.327C96.092 230.518 95.9325 230.678 95.7412 230.678Z" fill="#E28B6D"/>
<path d="M94.7843 213.893C94.6886 213.893 94.561 213.861 94.4972 213.765C94.3378 213.606 94.3378 213.351 94.5291 213.191L99.4724 208.532C99.6319 208.373 99.887 208.373 100.047 208.564C100.206 208.724 100.206 208.979 100.015 209.138L95.0713 213.797C95.0075 213.829 94.8799 213.893 94.7843 213.893Z" fill="#E28B6D"/>
<path d="M99.3768 215.488C99.2812 215.488 99.1855 215.456 99.0898 215.393C98.9303 215.233 98.9303 214.978 99.0898 214.818L103.842 209.872C104.001 209.713 104.256 209.713 104.416 209.872C104.575 210.032 104.575 210.287 104.416 210.447L99.6639 215.393C99.6001 215.425 99.4725 215.488 99.3768 215.488Z" fill="#E28B6D"/>
<path d="M104.065 218.265C103.97 218.265 103.874 218.233 103.778 218.169C103.619 218.01 103.619 217.754 103.746 217.595L107.478 213.574C107.637 213.415 107.892 213.415 108.052 213.542C108.211 213.702 108.211 213.957 108.084 214.117L104.352 218.137C104.289 218.233 104.161 218.265 104.065 218.265Z" fill="#E28B6D"/>
<path d="M168.137 353.786L95.9963 356.594L88.0232 290.764C88.0232 290.764 112.166 267.852 121.478 259.396L137.17 258.599C185.838 280.712 177.864 308.378 168.137 353.786Z" fill="url(#paint0_linear_0_222)"/>
<path d="M137.17 258.599C137.17 258.599 192.854 263.353 210.427 301.549C227.617 338.916 157.007 352.223 157.007 352.223L137.17 258.599Z" fill="url(#paint1_linear_0_222)"/>
<path d="M73.5123 266.767L96.5387 238.75L75.0112 225.699C66.0494 231.953 48.668 246.09 33.9655 262.108C30.7125 265.65 28.193 269.767 26.9173 274.33C25.8329 278.223 25.6416 282.052 26.2475 285.786C27.8422 295.582 35.5283 303.113 45.7977 304.325C54.5681 305.347 88.0552 302.73 115.164 294.752L123.137 263.959C118.991 261.63 88.5655 261.215 73.5123 266.767Z" fill="url(#paint2_linear_0_222)"/>
<g opacity="0.8">
<path opacity="0.8" d="M183.637 273.724C183.765 273.692 183.892 273.66 183.988 273.628C183.733 273.469 183.478 273.341 183.222 273.181C179.14 274.107 174.93 275.096 170.784 275.575C168.297 275.862 159.941 276.436 157.517 270.884C156.305 268.108 157.23 265.044 158.601 262.874C158.41 262.811 158.219 262.747 157.995 262.715C156.592 265.012 155.699 268.203 156.975 271.107C159.59 277.042 168.265 276.468 170.848 276.181C175.154 275.702 179.459 274.713 183.637 273.724Z" fill="white"/>
<path opacity="0.8" d="M209.63 316.802C206.983 315.781 204.208 314.696 201.338 314.984C196.267 315.462 191.929 320.472 191.674 326.152C191.483 330.013 192.982 334.098 195.788 337.671C195.948 337.576 196.139 337.448 196.299 337.352C193.556 333.874 192.089 329.949 192.28 326.184C192.535 320.791 196.618 316.037 201.401 315.558C204.144 315.303 206.728 316.292 209.438 317.345C210.395 317.728 211.384 318.111 212.404 318.43C212.468 318.238 212.5 318.047 212.564 317.855C211.543 317.536 210.586 317.153 209.63 316.802Z" fill="white"/>
<path opacity="0.8" d="M69.0474 297.752C65.5711 294.88 60.1813 294.114 54.2174 295.646C48.9232 297.018 44.3945 299.731 41.269 303.336C41.4604 303.4 41.6836 303.464 41.875 303.528C44.9048 300.114 49.2741 297.561 54.3769 296.221C60.1175 294.721 65.3479 295.455 68.6647 298.199C70.2593 299.507 71.3756 301.198 72.1729 303.049C72.3643 303.017 72.5875 303.017 72.7789 302.985C71.9496 301.039 70.7696 299.188 69.0474 297.752Z" fill="white"/>
<path opacity="0.8" d="M37.6333 258.184C44.1394 256.556 50.5179 254.291 56.3542 250.908C58.5548 249.632 61.0743 248.004 62.8284 245.611C64.7101 243.058 65.316 240.027 64.4868 237.506C64.1679 236.517 63.5938 235.655 62.8603 234.953C62.7008 235.081 62.5414 235.208 62.4138 235.336C63.0835 235.974 63.6257 236.772 63.9127 237.697C64.6782 240.027 64.1041 242.867 62.35 245.26C60.6597 247.558 58.204 249.153 56.0672 250.398C50.5498 253.589 44.554 255.79 38.3987 257.386C38.1436 257.641 37.8884 257.928 37.6333 258.184Z" fill="white"/>
</g>
<path d="M142.241 243.952V244.973L142.081 260.832L142.049 262.556C142.017 265.236 140.933 267.693 139.147 269.448C137.393 271.203 134.937 272.32 132.258 272.32C126.805 272.352 122.372 267.98 122.308 262.524L122.116 242.899L142.241 243.952Z" fill="#F9B384"/>
<path d="M142.24 244.973L142.081 260.833C133.279 257.227 129.643 247.686 129.643 247.686L142.24 244.973Z" fill="#102048"/>
<path d="M145.749 217.275C148.906 221.072 158.123 242.548 148.779 249.887C138.254 258.152 122.244 244.59 122.244 244.59L120.107 219.572L134.013 215.903L145.749 217.275Z" fill="#F9B384"/>
<path d="M112.995 215.903C112.995 215.903 82.1552 231.986 107.318 278.351C110.54 284.318 117.683 286.903 123.807 283.999C130.377 280.872 132.864 272.862 129.292 266.512C125.178 259.205 121.224 249.791 122.914 242.803L112.995 215.903Z" fill="#102048"/>
<path d="M121.815 229.404C125.065 226.151 125.065 220.878 121.815 217.626C118.564 214.373 113.294 214.373 110.043 217.626C106.792 220.878 106.792 226.151 110.043 229.404C113.294 232.656 118.564 232.656 121.815 229.404Z" fill="#FBC343"/>
<path d="M126.167 233.549C125.274 228.348 124.731 224.774 129.962 222.094C129.962 222.094 148.491 225.476 152.031 218.456C155.572 211.467 150.182 200.427 138.892 208.085C109.997 202.437 106.138 229.497 114.877 238.527L123.52 237.187C125.274 236.932 126.486 235.272 126.167 233.549Z" fill="#102048"/>
<path d="M140.518 234.794C141.205 234.794 141.762 234.237 141.762 233.55C141.762 232.862 141.205 232.305 140.518 232.305C139.832 232.305 139.275 232.862 139.275 233.55C139.275 234.237 139.832 234.794 140.518 234.794Z" fill="#102048"/>
<path d="M148.874 230.71C149.561 230.71 150.118 230.152 150.118 229.465C150.118 228.778 149.561 228.221 148.874 228.221C148.187 228.221 147.63 228.778 147.63 229.465C147.63 230.152 148.187 230.71 148.874 230.71Z" fill="#102048"/>
<path d="M148.013 237.347C147.918 237.347 147.854 237.315 147.758 237.251C147.631 237.123 147.599 236.9 147.758 236.772C148.237 236.262 148.779 235.528 148.556 234.985C148.332 234.443 147.312 234.188 146.865 234.188C145.877 234.188 145.398 232.433 145.334 232.082C145.303 231.89 145.398 231.699 145.59 231.667C145.781 231.635 145.972 231.731 146.004 231.922C146.196 232.656 146.578 233.486 146.865 233.486C147.344 233.486 148.779 233.709 149.193 234.698C149.512 235.4 149.193 236.262 148.237 237.251C148.205 237.315 148.109 237.347 148.013 237.347Z" fill="#102048"/>
<path d="M148.077 242.037C148.013 242.037 147.949 242.006 147.885 241.974C145.557 240.41 143.229 241.718 143.197 241.718C143.038 241.814 142.814 241.75 142.719 241.591C142.623 241.431 142.687 241.208 142.846 241.112C142.942 241.048 145.589 239.58 148.268 241.367C148.428 241.463 148.459 241.686 148.364 241.846C148.3 241.974 148.172 242.037 148.077 242.037Z" fill="#102048"/>
<path d="M139.976 228.221C140.678 229.529 139.466 229.816 138.031 230.582C136.596 231.348 135.129 231.635 134.81 230.997C134.491 230.359 135.352 229.242 136.787 228.476C138.222 227.71 139.434 227.2 139.976 228.221Z" fill="#102048"/>
<path d="M145.207 225.827C145.526 227.008 146.387 226.497 147.662 226.146C148.938 225.827 149.959 225.157 149.831 224.615C149.672 224.04 148.523 223.881 147.248 224.2C145.972 224.551 144.951 224.934 145.207 225.827Z" fill="#102048"/>
<path opacity="0.4" d="M137.321 241.991C138.798 240.629 138.89 238.327 137.529 236.85C136.168 235.374 133.867 235.281 132.391 236.643C130.915 238.005 130.822 240.306 132.184 241.783C133.545 243.26 135.845 243.353 137.321 241.991Z" fill="#EB5D60"/>
<path d="M125.454 242.73C127.111 240.581 126.476 237.312 124.035 235.428C121.595 233.544 118.273 233.758 116.616 235.907C114.959 238.056 115.594 241.325 118.035 243.209C120.475 245.093 123.797 244.878 125.454 242.73Z" fill="#F9B384"/>
<path d="M123.201 241.144C123.01 241.144 122.85 240.984 122.85 240.793C122.85 239.772 122.34 238.814 121.511 238.24C120.777 237.761 119.948 237.634 119.214 237.921C119.023 237.985 118.832 237.921 118.768 237.729C118.704 237.538 118.768 237.346 118.959 237.283C119.884 236.9 121 237.027 121.893 237.665C122.914 238.367 123.552 239.516 123.552 240.793C123.552 240.984 123.392 241.144 123.201 241.144Z" fill="#102048"/>
<path d="M73.2075 266.488L60.6296 280.102L61.2151 280.644L73.793 267.03L73.2075 266.488Z" fill="#102048"/>
<path d="M161.887 325.034L161.663 324.269C170.816 321.46 179.714 318.142 187.783 308.058L188.421 308.569C180.193 318.812 171.167 322.226 161.887 325.034Z" fill="#102048"/>
<path d="M167.468 294.146H89.5223C86.7158 294.146 84.4514 296.604 84.4514 299.635V355.318C84.4514 358.349 86.7158 360.806 89.5223 360.806H167.468C170.274 360.806 172.539 358.349 172.539 355.318V299.635C172.539 296.604 170.274 294.146 167.468 294.146Z" fill="#D3DFFF"/>
<path d="M132.609 323.982C132.896 323.982 133.151 324.238 133.151 324.557V330.428C133.151 330.747 132.896 331.003 132.609 331.003H124.381C124.094 331.003 123.839 330.747 123.839 330.428V324.557C123.839 324.238 124.094 323.982 124.381 323.982H132.609ZM132.609 322.387H124.381C123.201 322.387 122.244 323.376 122.244 324.557V330.428C122.244 331.641 123.201 332.598 124.381 332.598H132.609C133.789 332.598 134.746 331.609 134.746 330.428V324.557C134.714 323.344 133.789 322.387 132.609 322.387Z" fill="#1F3C88"/>
<path d="M470 418.405H0V420.001H470V418.405Z" fill="#102048"/>
</g>
<defs>
<linearGradient id="paint0_linear_0_222" x1="133.935" y1="299.852" x2="95.718" y2="360.555" gradientUnits="userSpaceOnUse">
<stop stop-color="#3162DF"/>
<stop offset="0.9649" stop-color="#173DB8"/>
</linearGradient>
<linearGradient id="paint1_linear_0_222" x1="177.051" y1="298.012" x2="139.149" y2="352.749" gradientUnits="userSpaceOnUse">
<stop stop-color="#3162DF"/>
<stop offset="0.9649" stop-color="#173DB8"/>
</linearGradient>
<linearGradient id="paint2_linear_0_222" x1="76.9602" y1="258.887" x2="51.2367" y2="315.362" gradientUnits="userSpaceOnUse">
<stop stop-color="#3162DF"/>
<stop offset="0.9649" stop-color="#173DB8"/>
</linearGradient>
<clipPath id="clip0_0_222">
<rect width="470" height="420" fill="white"/>
</clipPath>
</defs>
</svg>
