<svg width="470" height="425" viewBox="0 0 470 425" fill="none" xmlns="http://www.w3.org/2000/svg">
<rect width="470" height="425" fill="#E5E5E5"/>
<rect width="1920" height="1080" transform="translate(-389 -374)" fill="white"/>
<g opacity="0.5" clip-path="url(#clip0_0_1)">
<rect x="-389" y="-374" width="1920" height="1480" fill="#F0DEF0"/>
<g filter="url(#filter0_f_0_1)">
<circle cx="1259" cy="483" r="388" fill="#BA7BF1"/>
</g>
<g filter="url(#filter1_f_0_1)">
<ellipse cx="172" cy="-178.5" rx="349" ry="488.5" fill="#DA73C3"/>
</g>
<g filter="url(#filter2_f_0_1)">
<circle cx="-296" cy="757.438" r="349" fill="#6FF3F3"/>
</g>
<g filter="url(#filter3_f_0_1)">
<circle cx="1145" cy="-368" r="256" fill="#FDF8FD"/>
</g>
</g>
<g filter="url(#filter4_d_0_1)">
<rect x="-234" y="-334" width="1725" height="1000" rx="36" fill="white"/>
</g>
<path d="M456.382 303.783C448.696 286.297 433.93 271.682 416.198 264.502C397.732 257.003 376.523 259.747 357.069 257.227C340.166 255.057 327.983 247.494 317.905 234.092C308.241 221.232 299.567 207 283.78 201.065C271.278 196.374 257.086 197.682 244.68 202.565C221.813 211.595 204.527 230.773 189.984 249.887C176.685 267.342 165.841 286.424 141.284 287.062C116.695 287.701 93.2858 273.66 68.5372 277.362C35.8155 282.276 8.57929 309.527 2.87053 341.98C-2.48741 372.39 10.9393 401.875 34.0295 419.202H430.517C459.571 388.345 474.816 345.713 456.382 303.783Z" fill="#E7EDFD"/>
<path d="M97.9742 419.201H99.0585C106.649 410.873 112.581 400.757 116.344 389.557C122.436 371.4 122.181 352.35 115.611 335.884C112.294 327.588 107.478 319.834 102.854 312.335C98.1336 304.74 93.286 296.89 89.9692 288.466C88.5978 284.988 87.6091 281.254 87.0031 277.425C86.7161 277.393 86.461 277.361 86.174 277.329C86.7799 281.286 87.8324 285.147 89.2356 288.753C92.5524 297.241 97.432 305.123 102.184 312.749C106.808 320.216 111.592 327.939 114.877 336.171C121.383 352.446 121.638 371.304 115.579 389.302C111.752 400.63 105.692 410.841 97.9742 419.201Z" fill="white"/>
<path d="M428.572 384.611C436.736 386.366 444.614 387.93 452.236 388.887C452.364 388.632 452.491 388.377 452.619 388.121C444.933 387.132 436.992 385.569 428.731 383.814C416.166 381.133 402.58 378.229 389.089 378.229C380.733 378.229 372.441 379.346 364.436 382.314C361.406 383.431 358.504 384.867 355.698 386.558C348.49 383.494 341.218 380.112 334.043 376.442C339.273 372.517 344.535 368.656 349.861 364.955C389.408 337.321 425.893 321.653 461.134 317.217C461.07 316.962 460.975 316.707 460.911 316.451C425.574 320.919 388.993 336.619 349.383 364.316C343.929 368.114 338.571 372.039 333.245 376.059C325.176 371.879 317.171 367.284 309.453 362.21C295.421 353.02 278.773 339.905 264.198 322.482C320.616 316.132 378.086 308.155 425 276.787C426.786 275.607 428.763 274.203 430.804 272.607C430.581 272.447 430.358 272.288 430.135 272.128C428.189 273.66 426.276 275 424.585 276.117C377.671 307.485 320.105 315.398 263.624 321.748C253.323 309.304 244.137 294.657 237.759 277.745C227.809 251.355 228.319 225.476 239.194 206.713C239.673 205.883 240.151 205.085 240.693 204.288C240.247 204.511 239.8 204.702 239.354 204.926C239.067 205.373 238.811 205.819 238.524 206.298C227.521 225.252 226.979 251.387 237.025 278C243.372 294.848 252.493 309.399 262.699 321.844C259.414 322.195 256.161 322.578 252.908 322.929C241.14 324.237 228.989 325.578 217.156 327.109C212.851 327.652 208.45 328.322 204.081 329.12C194.736 309.367 184.435 290.094 171.167 273.564C170.976 273.756 170.785 273.947 170.593 274.139C183.765 290.54 193.971 309.655 203.283 329.279C184.243 332.917 165.778 339.746 155.891 355.637C146.674 370.475 146.674 390.993 155.923 416.617C156.242 417.511 156.561 418.372 156.911 419.234H157.773C157.422 418.276 157.039 417.319 156.688 416.33C147.535 390.961 147.503 370.667 156.593 356.052C166.352 340.352 184.722 333.619 203.666 330.013C206.983 337.001 210.172 344.054 213.329 351.042L213.68 351.808C224.683 376.123 236.069 399.609 250.994 419.202H251.983C236.93 399.545 225.48 375.932 214.414 351.457L214.063 350.691C210.905 343.735 207.748 336.746 204.495 329.822C208.769 329.024 213.074 328.386 217.316 327.843C229.116 326.312 241.299 324.971 253.036 323.695C256.48 323.312 259.924 322.929 263.369 322.546C278.071 340.256 294.942 353.563 309.134 362.849C316.789 367.859 324.666 372.422 332.671 376.538C319.117 386.813 305.913 397.599 293.029 408.161C288.564 411.799 284.067 415.5 279.506 419.202H280.782C285.056 415.724 289.329 412.245 293.539 408.799C306.519 398.173 319.787 387.292 333.468 376.985C340.612 380.654 347.82 384.005 354.996 387.1C345.173 393.355 337.168 403.023 332.32 414.766C331.714 416.234 331.172 417.734 330.694 419.202H331.523C332.001 417.798 332.48 416.426 333.054 415.053C337.902 403.279 345.97 393.61 355.857 387.451C375.917 395.971 395.659 402.321 412.594 407.331L413.232 407.523C420.376 409.629 427.679 411.799 434.121 415.277C434.313 415.085 434.472 414.862 434.663 414.671C428.094 411.097 420.694 408.927 413.455 406.757L412.817 406.565C396.042 401.587 376.555 395.333 356.686 386.941C359.27 385.409 361.98 384.101 364.787 383.048C385.389 375.389 408.352 380.272 428.572 384.611Z" fill="white"/>
<path d="M36.007 332.917C39.5152 347.341 37.9525 362.913 31.7015 375.645C27.5874 383.973 21.6873 391.536 14.3839 398.014C14.5434 398.237 14.6709 398.46 14.8304 398.684C22.2295 392.11 28.2572 384.452 32.4351 375.996C38.7817 363.104 40.3763 347.309 36.8043 332.726C34.0297 321.302 28.4166 311.665 20.6667 304.677C20.5073 304.868 20.3159 305.092 20.1565 305.283C27.7469 312.176 33.2643 321.685 36.007 332.917Z" fill="white"/>
<path d="M413.143 173.341C420.096 180.457 423.189 192.391 419.362 203.432C415.663 214.122 407.53 222.961 397.771 228.641C389.925 233.204 379.656 235.757 371.938 230.938C366.165 227.364 363.168 220.344 363.008 213.547C362.849 206.75 365.113 200.113 367.951 193.954C371.938 185.243 377.296 176.787 385.269 171.49C396.24 164.182 406.478 166.512 413.143 173.341Z" fill="#E7EDFD"/>
<path d="M124.381 25.7195H66.8788V0H124.381V25.7195ZM68.0588 24.5069H123.169V1.21258H68.0588V24.5069Z" fill="#7A73FF"/>
<path d="M86.971 50.2903H29.4369V24.5708H86.9391V50.2903H86.971ZM30.6488 49.1096H85.7591V25.7834H30.6488V49.1096Z" fill="#7A73FF"/>
<path d="M470 423H0V424.595H470V423Z" fill="#102048"/>
<path opacity="0.2" d="M238.74 423.033C357.182 423.033 453.199 420.911 453.199 418.293C453.199 415.676 357.182 413.554 238.74 413.554C120.298 413.554 24.2822 415.676 24.2822 418.293C24.2822 420.911 120.298 423.033 238.74 423.033Z" fill="#0B2252"/>
<path d="M338.194 68.3897C340.43 66.1535 343.533 64.7518 346.937 64.7518H359.219C361.054 56.3413 368.563 50 377.508 50C386.485 50 393.994 56.3079 395.796 64.7518H399.1C402.504 64.7518 405.608 66.1202 407.844 68.3897C410.08 70.6258 411.482 73.7297 411.482 77.1339C411.482 80.9053 409.78 84.2762 407.11 86.5457C404.941 88.3814 402.171 89.4827 399.1 89.4827H346.904C343.5 89.4827 340.396 88.1144 338.16 85.8448C335.924 83.6087 334.522 80.5048 334.522 77.1006C334.556 73.7297 335.958 70.6258 338.194 68.3897Z" fill="#E9F3FC"/>
<path d="M187.846 87.0135C185.743 84.9108 182.84 83.6092 179.636 83.6092H168.089C166.353 75.6993 159.312 69.7585 150.902 69.7585C142.458 69.7585 135.416 75.6993 133.714 83.6092H130.61C127.407 83.6092 124.503 84.9108 122.401 87.0135C120.298 89.1161 118.996 92.0197 118.996 95.2237C118.996 98.7615 120.598 101.966 123.101 104.068C125.137 105.804 127.74 106.838 130.61 106.838H179.67C182.873 106.838 185.777 105.537 187.879 103.434C189.982 101.331 191.283 98.4278 191.283 95.2237C191.25 92.0197 189.949 89.1161 187.846 87.0135Z" fill="#E9F3FC"/>
<path d="M323.342 343.701C319.037 345.136 322.274 351.21 322.274 355.482C322.274 359.754 320.138 371.535 324.41 373.671C328.682 375.808 335.123 380.113 335.123 384.385C335.123 388.657 336.191 394.03 340.463 396.166C344.735 398.302 349.04 398.302 349.04 401.506C349.04 404.71 346.904 405.778 347.972 409.016C349.04 412.22 351.176 413.288 350.108 414.356H377.941C377.941 414.356 383.281 405.778 382.213 400.438C381.145 395.098 375.772 395.098 374.704 390.793C373.636 386.521 368.263 385.453 368.263 381.148C368.263 376.875 366.127 370.434 362.923 368.298C359.719 366.162 353.278 368.298 351.142 364.026C349.006 359.754 351.142 355.449 347.938 353.313C344.735 351.177 338.294 354.381 335.09 351.177C331.919 347.973 326.546 342.633 323.342 343.701Z" fill="#3FB790"/>
<path d="M327.647 365.495C327.714 365.195 328.015 365.061 328.315 365.128C328.382 365.128 333.254 366.53 336.725 366.496C334.322 357.352 329.116 355.449 329.082 355.449C328.815 355.349 328.649 355.049 328.749 354.782C328.849 354.515 329.149 354.348 329.416 354.448C329.683 354.548 336.158 356.818 338.327 368.766C338.828 371.536 340.63 374.173 343.066 376.676C345.135 374.607 345.769 368.098 345.836 365.629C345.836 365.328 346.07 365.095 346.37 365.095C346.67 365.095 346.904 365.362 346.904 365.629C346.904 365.996 346.604 374.573 343.8 377.41C346.503 380.047 349.874 382.583 353.178 385.086C356.716 387.756 360.153 390.36 362.79 392.996C363.224 391.928 363.29 388.524 362.957 384.919C362.923 384.619 363.157 384.352 363.457 384.352C363.758 384.352 364.025 384.552 364.025 384.853C364.225 387.122 364.559 392.128 363.524 393.797C365.293 395.7 366.594 397.669 367.228 399.738C367.329 400.005 367.162 400.305 366.861 400.405C366.795 400.405 366.761 400.439 366.694 400.439C366.461 400.439 366.261 400.305 366.194 400.072C364.892 395.7 360.053 391.695 354.58 387.523C351.61 390.326 343.533 390.793 343.166 390.793H343.133C342.866 390.793 342.599 390.56 342.599 390.293C342.599 389.992 342.799 389.759 343.099 389.725C343.166 389.725 350.909 389.258 353.712 386.855C353.312 386.555 352.911 386.254 352.511 385.954C345.569 380.748 338.427 375.341 337.259 368.933C337.159 368.432 337.059 367.998 336.959 367.531C336.792 367.531 336.658 367.564 336.491 367.564C332.887 367.564 328.215 366.229 327.981 366.163C327.714 366.096 327.547 365.795 327.647 365.495Z" fill="#34916F"/>
<path d="M387.486 345.836C393.059 348.64 387.486 360.822 388.554 365.127C389.622 369.399 392.826 372.636 391.758 376.908C390.69 381.181 388.554 384.418 388.554 388.69C388.554 392.962 394.995 397.267 393.894 404.743C392.826 412.253 389.622 414.389 389.622 414.389H366.06C366.06 414.389 363.924 412.253 363.924 407.947C363.924 403.675 369.264 399.37 368.196 397.234C367.128 395.098 362.856 390.793 363.924 383.316C364.992 375.807 368.196 375.807 369.264 371.535C370.332 367.263 368.196 365.094 369.264 361.89C370.332 358.686 375.705 355.448 376.773 353.312C377.841 351.21 381.045 342.632 387.486 345.836Z" fill="#90DAD8"/>
<path d="M369.464 383.45C369.698 383.25 370.032 383.284 370.232 383.517C371.3 384.785 374.037 387.889 375.772 389.291C375.739 388.557 375.705 387.823 375.705 387.088C375.705 383.751 375.705 380.38 375.872 377.109C375.872 377.076 375.872 377.076 375.872 377.042C376.006 374.139 376.273 371.335 376.773 368.765C377.841 363.359 383.081 356.016 383.281 355.716C383.448 355.482 383.782 355.415 384.015 355.582C384.249 355.749 384.316 356.083 384.149 356.317C384.082 356.383 378.842 363.793 377.808 368.966C377.407 370.935 377.174 373.104 377.007 375.34C378.942 373.338 382.213 371.669 382.38 371.602C382.647 371.469 382.981 371.569 383.114 371.836C383.248 372.103 383.148 372.437 382.881 372.57C382.847 372.604 378.108 374.973 376.907 377.243C376.74 380.447 376.74 383.784 376.74 387.088C376.74 389.925 377.174 392.996 377.541 395.699C377.908 398.269 378.208 400.438 378.075 401.974C379.944 400.906 383.047 399.637 383.481 399.471C383.748 399.37 384.082 399.504 384.182 399.771C384.282 400.038 384.149 400.372 383.882 400.472C382.447 401.039 378.575 402.708 377.708 403.509C376.506 405.945 374.571 410.985 374.404 414.456C374.404 414.756 374.17 414.957 373.87 414.957C373.87 414.957 373.87 414.957 373.836 414.957C373.536 414.957 373.302 414.69 373.336 414.389C373.503 410.718 375.538 405.411 376.773 402.942C377.307 401.907 376.873 398.97 376.439 395.866C376.206 394.231 375.972 392.495 375.839 390.726C373.669 389.425 369.531 384.452 369.331 384.251C369.231 383.984 369.264 383.651 369.464 383.45Z" fill="white"/>
<path d="M203.514 81.951C204.793 88.1753 204.75 94.3569 203.599 100.198L119.145 114.863C116.544 110.515 114.626 105.697 113.56 100.453C108.444 75.6414 124.431 51.3411 149.286 46.2253C174.14 41.1094 198.398 57.0965 203.514 81.951Z" fill="white"/>
<path d="M118.718 117.122C118.079 116.994 117.525 116.61 117.184 116.056C114.37 111.409 112.409 106.293 111.301 100.964C105.929 74.9161 122.769 49.3795 148.817 44.0078C161.436 41.4073 174.311 43.8799 185.054 50.9569C195.797 58.0338 203.173 68.905 205.773 81.5241C207.095 87.9189 207.095 94.3564 205.859 100.666C205.688 101.604 204.921 102.329 203.983 102.499L119.571 117.122C119.273 117.207 118.974 117.207 118.718 117.122ZM167.106 48.4416C161.521 47.3331 155.638 47.2905 149.755 48.4842C126.179 53.3443 110.959 76.4509 115.82 100.026C116.715 104.375 118.25 108.51 120.381 112.347L201.638 98.1933C202.491 92.9495 202.363 87.6631 201.297 82.4194C197.631 64.7697 183.732 51.8095 167.106 48.4416Z" fill="#E0E9F3"/>
<path opacity="0.36" d="M123.962 78.3273C123.749 78.3273 123.579 78.2847 123.365 78.1994C122.47 77.8584 122.044 76.8778 122.385 76.0252C125.369 68.1383 138.372 54.496 147.623 53.7712C148.561 53.686 149.371 54.4107 149.456 55.3486C149.542 56.2865 148.817 57.0965 147.879 57.1818C140.717 57.6934 128.439 69.5877 125.582 77.2189C125.327 77.901 124.644 78.3273 123.962 78.3273Z" fill="#50C6A1"/>
<path d="M165.31 124.113C205.895 115.751 236.374 97.2132 233.385 82.7085C230.397 68.2037 195.073 63.2244 154.487 71.5868C113.901 79.9493 83.4228 98.4868 86.4114 112.992C89.4 127.496 124.724 132.476 165.31 124.113Z" fill="#7A73FF"/>
<path d="M161.98 107.955C177.569 104.743 189.274 97.6149 188.124 92.0344C186.974 86.4538 173.405 84.5337 157.816 87.7457C142.228 90.9576 130.523 98.0853 131.673 103.666C132.822 109.246 146.392 111.166 161.98 107.955Z" fill="#14336A"/>
<path d="M253.568 314.65L256.19 317.887L273.697 308.061L268.761 305.479L253.568 314.65Z" fill="#14336D"/>
<path d="M253.568 314.651L268.761 305.48C268.761 305.48 267.334 301.549 266.756 300.316L249.904 310.72L253.568 314.651Z" fill="#FFAA9D"/>
<path d="M211.959 249.296C211.959 249.296 235.791 263.4 245.585 272.494C255.38 281.587 261.357 288.562 267.258 300.045L249.442 311.104C249.442 311.104 233.207 292.184 221.908 285.017C210.648 277.85 191.328 259.893 191.328 259.893L211.959 249.296Z" fill="url(#paint0_linear_0_1)"/>
<path d="M180.106 303.129L176.443 308.062L195.261 322.242L195.956 315.653L180.106 303.129Z" fill="#14336D"/>
<path d="M180.107 303.128L195.956 315.651L201.856 311.798L184.001 298.08L180.107 303.128Z" fill="#FFAA9D"/>
<path d="M183.5 271.224C183.5 271.224 189.053 278.93 198.154 279.162C198.154 279.162 184.387 296.193 183.153 297.465L202.396 312.262C202.396 312.262 220.096 301.087 224.338 288.949C228.58 276.772 220.906 270.376 213.964 265.636C207.023 260.897 198.231 257.968 198.231 257.968L183.5 271.224Z" fill="#14336D"/>
<path d="M229.505 228.297C229.505 228.297 233.515 222.44 233.978 222.594C234.441 222.787 234.557 225.446 234.557 225.446C234.557 225.446 237.333 221.823 239.261 222.864C241.189 223.904 239.416 235.04 235.328 237.506L229.505 228.297Z" fill="#FFAA9D"/>
<path d="M193.873 220.28C193.873 220.28 201.354 219.471 205.519 224.403C209.645 229.374 212.075 233.266 212.075 233.266C212.075 233.266 228.888 227.062 229.929 227.486C230.97 227.91 235.79 235.424 236.215 236.926C236.639 238.429 228.232 248.525 211.959 249.296C195.647 250.066 189.631 226.099 193.873 220.28Z" fill="url(#paint1_linear_0_1)"/>
<path d="M152.38 237.929C152.38 237.929 144.976 232.92 144.359 233.305C143.704 233.652 145.94 235.887 145.786 236.079C145.632 236.272 142.161 237.736 142.971 241.59C143.781 245.443 145.593 247.986 146.403 248.526L152.38 237.929Z" fill="#FFAA9D"/>
<path d="M179.952 223.403C179.412 223.519 173.512 225.831 171.276 229.222C169.039 232.574 164.103 244.404 163.833 244.481C163.563 244.558 153.46 237.083 152.265 237.314C151.069 237.545 145.555 247.178 145.478 248.373C145.439 249.568 153.074 260.896 160.555 263.902C168.037 266.908 171.661 266.252 174.091 263.44C176.52 260.627 180.492 223.249 179.952 223.403Z" fill="url(#paint2_linear_0_1)"/>
<path d="M213.887 249.605C215.237 252.148 188.127 274.344 184.811 273.573C181.495 272.764 176.829 262.591 175.942 255.501C175.055 248.411 176.212 227.757 177.908 224.404C178.602 223.056 196.92 219.318 196.997 220.551C198.346 241.128 211.689 245.405 213.887 249.605Z" fill="url(#paint3_linear_0_1)"/>
<path d="M192.523 211.999L193.95 216.854L193.218 217.046C193.218 217.046 193.757 221.247 190.75 221.401C189.863 221.439 188.629 221.054 188.397 221.285C188.089 221.555 188.243 222.711 188.243 223.019C188.282 224.329 183.654 224.291 184.001 222.826C184.31 221.478 184.85 219.551 184.541 219.166C183.384 217.817 182.073 213.964 185.659 211.575C188.436 209.648 192.022 210.342 192.523 211.999Z" fill="#FFAA9D"/>
<path d="M183.963 222.787C184.271 221.439 184.811 219.512 184.502 219.127C184.502 219.127 186.855 221.208 188.474 221.169C188.436 221.169 188.397 221.208 188.359 221.208C188.05 221.477 188.204 222.633 188.204 222.942C188.243 224.29 183.616 224.252 183.963 222.787Z" fill="#FF9F91"/>
<path d="M186.585 216.197C184.657 216.39 186.932 220.166 184.888 220.59C182.845 221.014 180.184 217.006 180.724 213.192C181.263 209.377 184.117 208.799 186.932 208.491C189.747 208.221 193.372 208.491 193.951 210.533C195.3 215.427 188.398 212.922 188.398 214.502C188.436 215.735 188.899 219.126 190.094 218.895C191.29 218.625 192.215 217.353 193.218 217.315C193.796 217.315 197.035 223.287 193.256 224.598C189.516 225.869 187.588 222.786 187.626 219.819C187.703 217.006 187.549 216.12 186.585 216.197Z" fill="#14336A"/>
<mask id="mask0_0_1" style="mask-type:alpha" maskUnits="userSpaceOnUse" x="117" y="86" width="231" height="333">
<path d="M188.166 92.0542L347.099 419L117.652 416.698L131.678 103.693C130.527 98.1079 142.251 90.9884 157.812 87.791C173.415 84.5509 187.015 86.4694 188.166 92.0542Z" fill="url(#paint4_linear_0_1)"/>
</mask>
<g mask="url(#mask0_0_1)">
<g opacity="0.5">
<mask id="mask1_0_1" style="mask-type:alpha" maskUnits="userSpaceOnUse" x="117" y="86" width="231" height="333">
<path d="M188.166 92.0542L347.099 419L117.652 416.698L131.678 103.693C130.527 98.1079 142.251 90.9884 157.812 87.791C173.415 84.5509 187.015 86.4694 188.166 92.0542Z" fill="url(#paint5_linear_0_1)"/>
</mask>
<g mask="url(#mask1_0_1)">
<path d="M188.166 92.0542L347.099 419L117.652 416.698L131.678 103.693C130.527 98.1079 142.251 90.9884 157.812 87.791C173.415 84.5509 187.015 86.4694 188.166 92.0542Z" fill="url(#paint6_linear_0_1)"/>
</g>
</g>
</g>
<defs>
<filter id="filter0_f_0_1" x="111" y="-665" width="2296" height="2296" filterUnits="userSpaceOnUse" color-interpolation-filters="sRGB">
<feFlood flood-opacity="0" result="BackgroundImageFix"/>
<feBlend mode="normal" in="SourceGraphic" in2="BackgroundImageFix" result="shape"/>
<feGaussianBlur stdDeviation="380" result="effect1_foregroundBlur_0_1"/>
</filter>
<filter id="filter1_f_0_1" x="-937" y="-1427" width="2218" height="2497" filterUnits="userSpaceOnUse" color-interpolation-filters="sRGB">
<feFlood flood-opacity="0" result="BackgroundImageFix"/>
<feBlend mode="normal" in="SourceGraphic" in2="BackgroundImageFix" result="shape"/>
<feGaussianBlur stdDeviation="380" result="effect1_foregroundBlur_0_1"/>
</filter>
<filter id="filter2_f_0_1" x="-1405" y="-351.562" width="2218" height="2218" filterUnits="userSpaceOnUse" color-interpolation-filters="sRGB">
<feFlood flood-opacity="0" result="BackgroundImageFix"/>
<feBlend mode="normal" in="SourceGraphic" in2="BackgroundImageFix" result="shape"/>
<feGaussianBlur stdDeviation="380" result="effect1_foregroundBlur_0_1"/>
</filter>
<filter id="filter3_f_0_1" x="129" y="-1384" width="2032" height="2032" filterUnits="userSpaceOnUse" color-interpolation-filters="sRGB">
<feFlood flood-opacity="0" result="BackgroundImageFix"/>
<feBlend mode="normal" in="SourceGraphic" in2="BackgroundImageFix" result="shape"/>
<feGaussianBlur stdDeviation="380" result="effect1_foregroundBlur_0_1"/>
</filter>
<filter id="filter4_d_0_1" x="-270" y="-367" width="1797" height="1072" filterUnits="userSpaceOnUse" color-interpolation-filters="sRGB">
<feFlood flood-opacity="0" result="BackgroundImageFix"/>
<feColorMatrix in="SourceAlpha" type="matrix" values="0 0 0 0 0 0 0 0 0 0 0 0 0 0 0 0 0 0 127 0" result="hardAlpha"/>
<feOffset dy="3"/>
<feGaussianBlur stdDeviation="18"/>
<feComposite in2="hardAlpha" operator="out"/>
<feColorMatrix type="matrix" values="0 0 0 0 0.262745 0 0 0 0 0 0 0 0 0 1 0 0 0 0.05 0"/>
<feBlend mode="normal" in2="BackgroundImageFix" result="effect1_dropShadow_0_1"/>
<feBlend mode="normal" in="SourceGraphic" in2="effect1_dropShadow_0_1" result="shape"/>
</filter>
<linearGradient id="paint0_linear_0_1" x1="236.689" y1="278.613" x2="214.03" y2="284.604" gradientUnits="userSpaceOnUse">
<stop stop-color="#14336D"/>
<stop offset="1" stop-color="#0E2253"/>
</linearGradient>
<linearGradient id="paint1_linear_0_1" x1="214.311" y1="229.953" x2="215.314" y2="250.785" gradientUnits="userSpaceOnUse">
<stop stop-color="#3162DF"/>
<stop offset="0.9649" stop-color="#173DB8"/>
</linearGradient>
<linearGradient id="paint2_linear_0_1" x1="170.774" y1="234.48" x2="156.282" y2="262.587" gradientUnits="userSpaceOnUse">
<stop stop-color="#3162DF"/>
<stop offset="0.9649" stop-color="#173DB8"/>
</linearGradient>
<linearGradient id="paint3_linear_0_1" x1="195.384" y1="255.189" x2="208.913" y2="287.827" gradientUnits="userSpaceOnUse">
<stop stop-color="#3162DF"/>
<stop offset="0.9649" stop-color="#173DB8"/>
</linearGradient>
<linearGradient id="paint4_linear_0_1" x1="137.951" y1="67.3894" x2="218.125" y2="364.932" gradientUnits="userSpaceOnUse">
<stop stop-color="white"/>
<stop offset="1"/>
</linearGradient>
<linearGradient id="paint5_linear_0_1" x1="147.03" y1="101.081" x2="227.204" y2="398.623" gradientUnits="userSpaceOnUse">
<stop offset="0.41" stop-color="white"/>
<stop offset="1"/>
</linearGradient>
<linearGradient id="paint6_linear_0_1" x1="147.03" y1="101.081" x2="147.03" y2="248" gradientUnits="userSpaceOnUse">
<stop offset="0.41" stop-color="#7A73FF"/>
<stop offset="1" stop-color="#7A73FF" stop-opacity="0.5"/>
</linearGradient>
<clipPath id="clip0_0_1">
<rect width="1920" height="1080" fill="white" transform="translate(-389 -374)"/>
</clipPath>
</defs>
</svg>
