<svg xmlns="http://www.w3.org/2000/svg" width="16" height="16" viewBox="0 0 16 16">
    <path fill="none" d="M0 0h16v16H0z"/>
    <path fill="#6c5dd3" d="M10.694 10.291v-1.1L9.2 10.762l1.494 1.57v-1.1H14v-.942zm1.812 2.669H9.2v.94h3.306V15L14 13.43l-1.494-1.57zM6.5 4.012a1.232 1.232 0 0 0 1.2-1.256 1.2 1.2 0 1 0-2.4 0 1.232 1.232 0 0 0 1.2 1.256zM4.25 6.147L2.6 15h1.26l1.05-5.023 1.29 1.256V15h1.2v-4.741L6.17 8.972l.36-1.884A4.119 4.119 0 0 0 9.8 8.721V7.465a3.051 3.051 0 0 1-2.61-1.538l-.57-1a1.158 1.158 0 0 0-1.47-.5L2 5.77v2.951h1.2v-2.1l1.05-.471" transform="translate(0)"/>
</svg>
