<svg width="24" height="24" viewBox="0 0 24 24" fill="none" xmlns="http://www.w3.org/2000/svg">
<path d="M22.7812 0.28125H1.21875C0.700195 0.28125 0.28125 0.700195 0.28125 1.21875V22.7812C0.28125 23.2998 0.700195 23.7188 1.21875 23.7188H22.7812C23.2998 23.7188 23.7188 23.2998 23.7188 22.7812V1.21875C23.7188 0.700195 23.2998 0.28125 22.7812 0.28125ZM7.78125 18.7969C7.78125 18.9258 7.67578 19.0312 7.54688 19.0312H5.20312C5.07422 19.0312 4.96875 18.9258 4.96875 18.7969V5.20312C4.96875 5.07422 5.07422 4.96875 5.20312 4.96875H7.54688C7.67578 4.96875 7.78125 5.07422 7.78125 5.20312V18.7969ZM13.4062 10.5938C13.4062 10.7227 13.3008 10.8281 13.1719 10.8281H10.8281C10.6992 10.8281 10.5938 10.7227 10.5938 10.5938V5.20312C10.5938 5.07422 10.6992 4.96875 10.8281 4.96875H13.1719C13.3008 4.96875 13.4062 5.07422 13.4062 5.20312V10.5938ZM19.0312 12.7031C19.0312 12.832 18.9258 12.9375 18.7969 12.9375H16.4531C16.3242 12.9375 16.2188 12.832 16.2188 12.7031V5.20312C16.2188 5.07422 16.3242 4.96875 16.4531 4.96875H18.7969C18.9258 4.96875 19.0312 5.07422 19.0312 5.20312V12.7031Z" fill="#B3ABC4"/>
</svg>
