<svg width="24" height="26" viewBox="0 0 24 26" fill="none" xmlns="http://www.w3.org/2000/svg">
<path d="M20.6738 8.87142C20.923 8.87142 21.1492 8.98017 21.3279 9.16391C21.4944 9.36016 21.5783 9.60391 21.554 9.86141C21.554 9.94641 20.8878 18.3713 20.5073 21.9175C20.269 24.0938 18.8661 25.415 16.7617 25.4513C15.1437 25.4875 13.562 25.5 12.0047 25.5C10.3514 25.5 8.73453 25.4875 7.16508 25.4513C5.13123 25.4025 3.7271 24.0575 3.50099 21.9175C3.10953 18.3588 2.45549 9.94641 2.44334 9.86141C2.43118 9.60391 2.51385 9.36016 2.68161 9.16391C2.84694 8.98017 3.08522 8.87142 3.33565 8.87142H20.6738ZM14.5809 0.5C15.686 0.5 16.6731 1.27124 16.9588 2.37123L17.163 3.28372C17.3284 4.02746 17.9727 4.55371 18.7143 4.55371H22.3589C22.8452 4.55371 23.25 4.95746 23.25 5.4712V5.9462C23.25 6.44744 22.8452 6.86369 22.3589 6.86369H1.64232C1.15482 6.86369 0.75 6.44744 0.75 5.9462V5.4712C0.75 4.95746 1.15482 4.55371 1.64232 4.55371H5.28696C6.02731 4.55371 6.67163 4.02746 6.83818 3.28497L7.02904 2.43248C7.32567 1.27124 8.30187 0.5 9.41909 0.5H14.5809Z" fill="#B3ABC4"/>
</svg>
