<svg xmlns="http://www.w3.org/2000/svg" xmlns:xlink="http://www.w3.org/1999/xlink" width="604" height="914" viewBox="0 0 604 914">
  <defs>
    <style>
      .cls-1 {
        fill: #e3e6ec;
        opacity: 0.908;
        mix-blend-mode: multiply;
        isolation: isolate;
      }

      .cls-13, .cls-15, .cls-18, .cls-2 {
        fill: #fff;
      }

      .cls-3 {
        fill: #f1d8ff;
      }

      .cls-4 {
        fill: #1b1d21;
      }

      .cls-4, .cls-5 {
        font-size: 14px;
      }

      .cls-13, .cls-4 {
        font-family: Poppins-SemiBold, Poppins;
        font-weight: 600;
      }

      .cls-5 {
        fill: #6c5dd3;
        font-family: Poppins-Medium, Poppins;
        font-weight: 500;
      }

      .cls-10, .cls-6 {
        fill: none;
      }

      .cls-6 {
        stroke: #e4e4e4;
      }

      .cls-7 {
        fill: #897ddc;
      }

      .cls-8 {
        fill: #0c0060;
        font-family: Poppins-Regular, Poppins;
        opacity: 0.56;
      }

      .cls-18, .cls-8 {
        font-size: 12px;
      }

      .cls-9 {
        fill: #d8f7ff;
      }

      .cls-11 {
        fill: #00a9d5;
      }

      .cls-12 {
        fill: #ef5d5d;
      }

      .cls-13 {
        font-size: 8px;
        letter-spacing: 0.016em;
      }

      .cls-14 {
        fill: #f1ffd8;
      }

      .cls-15 {
        font-size: 24px;
        font-family: Poppins-Bold, Poppins;
        font-weight: 700;
      }

      .cls-16 {
        fill: #fff7d8;
      }

      .cls-17 {
        fill: #7e6ff7;
      }

      .cls-17, .cls-19, .cls-20 {
        opacity: 0.8;
      }

      .cls-18 {
        font-family: Poppins-Light, Poppins;
        font-weight: 300;
        letter-spacing: 0.16em;
      }

      .cls-19 {
        fill: #ef85a9;
      }

      .cls-20 {
        fill: #97ec9d;
      }

      .cls-21 {
        filter: url(#Rectangle_116);
      }
    </style>
    <filter id="Rectangle_116" x="109" y="104" width="386" height="182" filterUnits="userSpaceOnUse">
      <feOffset input="SourceAlpha"/>
      <feGaussianBlur stdDeviation="8" result="blur"/>
      <feFlood flood-opacity="0.078"/>
      <feComposite operator="in" in2="blur"/>
      <feComposite in="SourceGraphic"/>
    </filter>
  </defs>
  <g id="Group_14383" data-name="Group 14383" transform="translate(10671 15753)">
    <g id="bg_big_shadow" data-name="bg big shadow" transform="translate(-10539 -15625)">
      <rect id="Shadow" class="cls-1" width="303" height="614" rx="24" transform="translate(18 22)"/>
      <rect id="bg" class="cls-2" width="338" height="614" rx="24"/>
      <g id="Group_293" data-name="Group 293" transform="translate(-777 -157)">
        <rect id="Shadow-2" data-name="Shadow" class="cls-1" width="303" height="376" rx="24" transform="translate(796 179)"/>
        <rect id="bg-2" data-name="bg" class="cls-2" width="338" height="614" rx="24" transform="translate(778 157)"/>
        <g id="Group_296" data-name="Group 296" transform="translate(357 9)">
          <rect id="Rectangle_74" data-name="Rectangle 74" class="cls-3" width="130" height="75" rx="8" transform="translate(648 316)"/>
          <text id="CDSL" class="cls-4" transform="translate(660 343)"><tspan x="0" y="0">CDSL</tspan></text>
          <text id="ASSIGN" class="cls-5" transform="translate(660 375)"><tspan x="0" y="0">ASSIGN</tspan></text>
        </g>
        <g id="Group_299" data-name="Group 299">
          <line id="Line_19" data-name="Line 19" class="cls-6" y2="480" transform="translate(846 291)"/>
          <line id="Line_20" data-name="Line 20" class="cls-6" y2="480" transform="translate(914 291)"/>
          <line id="Line_21" data-name="Line 21" class="cls-6" y2="480" transform="translate(982 291)"/>
          <line id="Line_22" data-name="Line 22" class="cls-6" y2="480" transform="translate(1050 291)"/>
        </g>
        <g class="cls-21" transform="matrix(1, 0, 0, 1, 645, 29)">
          <path id="Rectangle_116-2" data-name="Rectangle 116" class="cls-7" d="M24,0H314a24,24,0,0,1,24,24V134a0,0,0,0,1,0,0H0a0,0,0,0,1,0,0V24A24,24,0,0,1,24,0Z" transform="translate(133 128)"/>
        </g>
        <text id="An_activation_link_will_be_sent_to_you_on_your_abouve_mentioned_email" data-name="An activation link will be sent to you on your abouve mentioned email" class="cls-8" transform="translate(801 278)"><tspan x="0" y="0">Jan</tspan></text>
        <text id="An_activation_link_will_be_sent_to_you_on_your_abouve_mentioned_email-2" data-name="An activation link will be sent to you on your abouve mentioned email" class="cls-8" transform="translate(869 278)"><tspan x="0" y="0">Feb</tspan></text>
        <text id="An_activation_link_will_be_sent_to_you_on_your_abouve_mentioned_email-3" data-name="An activation link will be sent to you on your abouve mentioned email" class="cls-8" transform="translate(937 278)"><tspan x="0" y="0">Mar</tspan></text>
        <text id="An_activation_link_will_be_sent_to_you_on_your_abouve_mentioned_email-4" data-name="An activation link will be sent to you on your abouve mentioned email" class="cls-8" transform="translate(1005 278)"><tspan x="0" y="0">Apr</tspan></text>
        <text id="An_activation_link_will_be_sent_to_you_on_your_abouve_mentioned_email-5" data-name="An activation link will be sent to you on your abouve mentioned email" class="cls-8" transform="translate(1073 278)"><tspan x="0" y="0">May</tspan></text>
        <g id="Group_295" data-name="Group 295" transform="translate(164 9)">
          <rect id="Rectangle_74-2" data-name="Rectangle 74" class="cls-9" width="130" height="75" rx="8" transform="translate(648 316)"/>
          <text id="NSE" class="cls-4" transform="translate(660 343)"><tspan x="0" y="0">NSE</tspan></text>
          <g id="account_circle-24px" transform="translate(746 328)">
            <path id="Path_60" data-name="Path 60" class="cls-10" d="M0,0H24V24H0Z"/>
            <path id="Path_61" data-name="Path 61" class="cls-11" d="M12,2A10,10,0,1,0,22,12,10,10,0,0,0,12,2Zm0,3A3,3,0,1,1,9,8,3,3,0,0,1,12,5Zm0,14.2a7.2,7.2,0,0,1-6-3.22c.03-1.99,4-3.08,6-3.08s5.97,1.09,6,3.08A7.2,7.2,0,0,1,12,19.2Z"/>
          </g>
          <g id="Group_241" data-name="Group 241" transform="translate(660 364.018)">
            <rect id="Rectangle_75" data-name="Rectangle 75" class="cls-12" width="58" height="16" rx="8" transform="translate(0 -0.019)"/>
            <text id="DUE_TODAY" data-name="DUE TODAY" class="cls-13" transform="translate(6 10.981)"><tspan x="0" y="0">DUE TODAY</tspan></text>
          </g>
        </g>
        <g id="Group_297" data-name="Group 297" transform="translate(221 111)">
          <rect id="Rectangle_74-3" data-name="Rectangle 74" class="cls-14" width="130" height="75" rx="8" transform="translate(648 316)"/>
          <text id="CDSL-2" data-name="CDSL" class="cls-4" transform="translate(660 343)"><tspan x="0" y="0">CDSL</tspan></text>
          <text id="ASSIGN-2" data-name="ASSIGN" class="cls-5" transform="translate(660 375)"><tspan x="0" y="0">ASSIGN</tspan></text>
        </g>
        <text id="Earning_by_items" data-name="Earning by items" class="cls-15" transform="translate(810 191)"><tspan x="0" y="25">Compliance</tspan><tspan x="0" y="55">Calendar 2021</tspan></text>
        <g id="Group_298" data-name="Group 298" transform="translate(308 213)">
          <rect id="Rectangle_74-4" data-name="Rectangle 74" class="cls-16" width="130" height="75" rx="8" transform="translate(648 316)"/>
          <text id="BSE" class="cls-4" transform="translate(660 343)"><tspan x="0" y="0">BSE</tspan></text>
          <text id="ASSIGN-3" data-name="ASSIGN" class="cls-5" transform="translate(660 375)"><tspan x="0" y="0">ASSIGN</tspan></text>
        </g>
        <g id="Group_405" data-name="Group 405" transform="translate(289 315)">
          <rect id="Rectangle_74-5" data-name="Rectangle 74" class="cls-9" width="130" height="75" rx="8" transform="translate(648 316)"/>
          <text id="NSE-2" data-name="NSE" class="cls-4" transform="translate(660 343)"><tspan x="0" y="0">NSE</tspan></text>
          <text id="ASSIGN-4" data-name="ASSIGN" class="cls-5" transform="translate(660 375)"><tspan x="0" y="0">ASSIGN</tspan></text>
        </g>
      </g>
    </g>
    <g id="Group_348" data-name="Group 348" transform="translate(1376 1851)">
      <rect id="Rectangle_92" data-name="Rectangle 92" class="cls-17" width="156" height="156" rx="8" transform="translate(-11993 -17286)"/>
      <text id="Signup" class="cls-18" transform="translate(-11915 -17152)"><tspan x="-61.14" y="0">AUTO REMINDERS</tspan></text>
      <g id="sms-24px" transform="translate(-11939 -17242)">
        <path id="Path_80" data-name="Path 80" class="cls-10" d="M0,0H48V48H0Z"/>
        <path id="Path_81" data-name="Path 81" class="cls-2" d="M38,2H6A4,4,0,0,0,2.02,6L2,42l8-8H38a4.012,4.012,0,0,0,4-4V6A4.012,4.012,0,0,0,38,2ZM16,20H12V16h4Zm8,0H20V16h4Zm8,0H28V16h4Z" transform="translate(2 2)"/>
      </g>
    </g>
    <g id="Group_429" data-name="Group 429">
      <rect id="Rectangle_94" data-name="Rectangle 94" class="cls-19" width="245" height="144" rx="8" transform="translate(-10323 -15534)"/>
      <text id="Signup-2" data-name="Signup" class="cls-18" transform="translate(-10299 -15425)"><tspan x="-54.498" y="13">NOTIFICATIONS</tspan></text>
      <g id="add_circle_outline-24px_1_" data-name="add_circle_outline-24px (1)" transform="translate(-10224 -15496)">
        <path id="Path_66" data-name="Path 66" class="cls-10" d="M0,0H48V48H0Z"/>
        <path id="Path_99" data-name="Path 99" class="cls-2" d="M21.649,47.16a4.224,4.224,0,0,0,4.226-4.226H17.423A4.224,4.224,0,0,0,21.649,47.16Zm17.606-10-2.74-2.74V21.675A14.852,14.852,0,0,0,24.835,7.17V4.686a3.186,3.186,0,1,0-6.371,0V7.17A14.852,14.852,0,0,0,6.783,21.675V34.418l-2.74,2.74A2.124,2.124,0,0,0,5.53,40.789H37.747A2.126,2.126,0,0,0,39.255,37.157ZM23.773,32.294H19.525V28.047h4.247Zm0-10.619a2.124,2.124,0,0,1-4.247,0V17.428a2.124,2.124,0,0,1,4.247,0Z" transform="translate(2.352 -1.5)"/>
      </g>
    </g>
    <g id="Group_351" data-name="Group 351" transform="translate(891 1808)">
      <rect id="Rectangle_92-2" data-name="Rectangle 92" class="cls-20" width="156" height="156" rx="8" transform="translate(-11155 -17031)"/>
      <text id="Signup-3" data-name="Signup" class="cls-18" transform="translate(-11077 -16917)"><tspan x="-42.744" y="0">AUTOMATED</tspan><tspan x="-33.648" y="20">TASK LIST</tspan></text>
      <path id="Path_98" data-name="Path 98" class="cls-2" d="M48.027,9.424a2.364,2.364,0,0,1,0,3.364L20.78,40.035a2.364,2.364,0,0,1-3.364,0L7.324,29.944a2.379,2.379,0,0,1,3.364-3.364l8.41,8.41L44.663,9.424A2.364,2.364,0,0,1,48.027,9.424Zm-5.07-5.094L19.1,28.19l-6.7-6.7a4.815,4.815,0,0,0-6.8,0L2.231,24.85a4.815,4.815,0,0,0,0,6.8L15.686,45.105a4.815,4.815,0,0,0,6.8,0L53.121,14.494a4.815,4.815,0,0,0,0-6.8L49.757,4.331A4.815,4.815,0,0,0,42.957,4.331Z" transform="translate(-11104.676 -16997.926)"/>
    </g>
  </g>
</svg>
