<svg xmlns="http://www.w3.org/2000/svg" xmlns:xlink="http://www.w3.org/1999/xlink" width="242" height="242" viewBox="0 0 242 242">
  <defs>
    <style>
      .cls-1 {
        fill: none;
      }

      .cls-2 {
        fill: #b18eff;
        opacity: 0.5;
      }

      .cls-3 {
        fill: rgba(241,113,207,0.5);
        stroke: #f6f8fb;
        stroke-width: 4px;
      }

      .cls-4 {
        stroke: none;
      }

      .cls-5 {
        filter: url(#Rectangle);
      }
    </style>
    <filter id="Rectangle" x="0" y="0" width="242" height="242" filterUnits="userSpaceOnUse">
      <feOffset dy="32" input="SourceAlpha"/>
      <feGaussianBlur stdDeviation="27" result="blur"/>
      <feFlood flood-color="#258aff" flood-opacity="0.224"/>
      <feComposite operator="in" in2="blur"/>
      <feComposite in="SourceGraphic"/>
    </filter>
  </defs>
  <g id="Group_7" data-name="Group 7" transform="translate(81 49)">
    <g class="cls-5" transform="matrix(1, 0, 0, 1, -81, -49)">
      <rect id="Rectangle-2" data-name="Rectangle" class="cls-1" width="80" height="80" rx="10" transform="translate(81 49)"/>
    </g>
    <path id="Polygon_14" data-name="Polygon 14" class="cls-2" d="M19.054,2.148a5,5,0,0,1,5.892,0l16.128,11.76a5,5,0,0,1,1.811,5.58L36.717,38.54A5,5,0,0,1,31.96,42H12.04a5,5,0,0,1-4.757-3.46L1.116,19.488a5,5,0,0,1,1.811-5.58Z" transform="translate(30.26 27.917)"/>
    <g id="Ellipse_35" data-name="Ellipse 35" class="cls-3" transform="translate(5 9.656)">
      <circle class="cls-4" cx="23" cy="23" r="23"/>
      <circle class="cls-1" cx="23" cy="23" r="25"/>
    </g>
  </g>
</svg>
