<svg width="17" height="18" viewBox="0 0 17 18" fill="none" xmlns="http://www.w3.org/2000/svg">
<path d="M14.3452 6.02742C14.5246 6.02742 14.6874 6.10572 14.8161 6.23802C14.936 6.37932 14.9964 6.55481 14.9789 6.74021C14.9789 6.80141 14.4992 12.8674 14.2252 15.4206C14.0537 16.9875 13.0436 17.9388 11.5285 17.9649C10.3634 17.991 9.22467 18 8.10341 18C6.91301 18 5.74886 17.991 4.61886 17.9649C3.15448 17.9298 2.14352 16.9614 1.98071 15.4206C1.69886 12.8584 1.22795 6.80141 1.2192 6.74021C1.21045 6.55481 1.26997 6.37932 1.39076 6.23802C1.5098 6.10572 1.68136 6.02742 1.86167 6.02742H14.3452ZM9.95826 0C10.7539 0 11.4646 0.555295 11.6703 1.34729L11.8174 2.00428C11.9364 2.53977 12.4003 2.91867 12.9343 2.91867H15.5584C15.9085 2.91867 16.2 3.20937 16.2 3.57926V3.92126C16.2 4.28216 15.9085 4.58185 15.5584 4.58185H0.642468C0.291474 4.58185 0 4.28216 0 3.92126V3.57926C0 3.20937 0.291474 2.91867 0.642468 2.91867H3.26661C3.79966 2.91867 4.26357 2.53977 4.38349 2.00518L4.52091 1.39139C4.73448 0.555294 5.43735 0 6.24174 0H9.95826Z" fill="#FF5858"/>
</svg>
